<?xml version="1.0" encoding="UTF-8"?>
<svg version="1.1" viewBox="0 0 1600 1600" width="1280" height="1280" xmlns="http://www.w3.org/2000/svg">
<path transform="translate(0)" d="m0 0h1600v1600h-1600v-1600z" fill="#FEFFFF"/>
<path transform="translate(778,421)" d="m0 0c2 3 2 3 3.25 5.56 1.9 3.74 4.04 7.28 6.21 10.9 1.4 2.33 2.73 4.69 4.04 7.07 1.71 3.1 3.48 6.16 5.31 9.19 3.85 6.37 7.52 12.8 11.2 19.3 0.8 1.4 0.8 1.4 1.62 2.82 0.46 0.8 0.91 1.61 1.38 2.43 0.39 0.69 0.78 1.37 1.19 2.08 0.81 1.67 0.81 1.67 0.81 3.67h2c0.79 1.56 1.59 3.12 2.38 4.69 0.44 0.87 0.88 1.74 1.33 2.63 1.22 2.53 2.28 5.07 3.29 7.68h2c0.31 0.64 0.63 1.28 0.95 1.94 3.09 6.24 6.22 12.3 10.1 18.1 1.92 2.9 3.44 5.81 4.94 8.94 0.56 1.07 1.11 2.14 1.69 3.25 1.31 2.75 1.31 2.75 1.31 4.75h2c1.97 3.37 3.92 6.75 5.88 10.1 0.55 0.96 1.11 1.91 1.68 2.89 2.63 4.57 5.07 8.85 6.44 14h2c2.19 4.56 3.57 7.84 3 13-1 2.37-1 2.37-2 4h-2c-0.26 0.87-0.52 1.74-0.78 2.64-1.24 3.41-2.75 6.06-4.72 9.11-3.36 5.29-6.44 10.7-9.44 16.2-3.07 5.62-6.28 11.1-9.81 16.4-3.3 4.99-6.06 10.1-8.65 15.5-3.93 7.73-8.64 15.1-13.3 22.4-2.49 3.94-4.68 8.03-6.88 12.1-1.41 2.58-2.91 5.09-4.43 7.61-0.77 1.31-1.54 2.62-2.3 3.93-0.42 0.71-0.84 1.43-1.27 2.16-0.86 1.47-1.72 2.94-2.58 4.41-2.11 3.6-4.26 7.17-6.48 10.7-1.92 3.04-3.69 6.12-5.37 9.3-1.86 3.42-3.71 6.84-5.69 10.2-0.37 0.64-0.75 1.28-1.13 1.95-0.59 0.67-0.59 0.67-1.18 1.36h-3l1 3c-1 2.35-1 2.35-2.56 5.06-0.55 0.97-1.11 1.94-1.67 2.94-2.16 3.66-4.34 7.3-6.57 10.9-1.33 2.17-1.33 2.17-2.2 5.09h-2c-0.37 1.27-0.37 1.27-0.75 2.57-1.35 3.72-3.17 6.91-5.25 10.2-0.81 1.33-1.62 2.66-2.43 3.99-0.42 0.68-0.85 1.37-1.28 2.08-2.15 3.54-4.25 7.11-6.35 10.7-0.63 1.07-0.63 1.07-1.27 2.16-2.67 4.55-5.31 9.13-7.92 13.7-3.67 6.45-7.45 12.8-11.4 19.2-2.88 4.7-5.39 9.27-7.4 14.4h-2c-0.25 0.86-0.51 1.73-0.77 2.62-1.28 3.53-2.9 6.34-4.92 9.5l-2.16 3.45c-0.36 0.57-0.72 1.14-1.1 1.74-2.18 3.51-4.24 7.11-6.31 10.7-1.22 2.11-2.46 4.21-3.7 6.31-0.95 1.61-0.95 1.61-1.92 3.25-0.57 0.97-1.14 1.94-1.74 2.94-1.49 2.51-1.49 2.51-2.38 5.5-0.47 0.43-0.95 0.87-1.44 1.31-2.12 2.3-2.7 4.72-3.56 7.69h-2c-0.25 0.89-0.5 1.77-0.75 2.69-1.3 3.45-2.93 5.48-5.25 8.31-1.24 2.68-1.24 2.68-2 5h-2c-0.27 0.88-0.53 1.75-0.8 2.66-1.17 3.24-2.55 5.89-4.32 8.84-2.77 4.65-5.51 9.3-8.19 14-0.66 1.14-1.31 2.29-1.99 3.47-1.3 2.32-2.54 4.64-3.7 7.03h-2c-0.26 0.86-0.51 1.71-0.77 2.59-1.3 3.59-2.93 6.62-4.85 9.91-0.72 1.23-1.43 2.45-2.15 3.68-0.37 0.63-0.73 1.25-1.11 1.9-1.12 1.92-2.22 3.86-3.32 5.8-0.35 0.63-0.71 1.26-1.07 1.9-0.99 1.75-1.98 3.51-2.97 5.26-1.47 2.47-3.02 4.69-4.76 6.96-0.43 0.87-0.87 1.73-1.31 2.62-1.83 3.67-3.9 7.11-6.02 10.6-4.05 6.71-8 13.5-11.7 20.4-2.48 4.62-5.36 8.8-8.41 13.1-1.79 2.61-3.15 5.25-4.48 8.11-1.99 3.96-4.39 7.7-6.72 11.5-1.69 2.81-1.69 2.81-1.39 6.73 8.05 1.11 16 1.15 24.1 1.13 1.5 0 3.01 0.01 4.51 0.01 4.03 0 8.06 0 12.1-0.01 2.51-0.01 5.02-0.01 7.53-0.01 22.1-0.02 44.3-0.12 66.4-0.44 2.62-0.04 5.24-0.07 7.86-0.1 3.63-0.05 7.26-0.1 10.9-0.17 1.05-0.01 2.1-0.02 3.19-0.03 14-0.29 26.5-4.27 37.4-13.4 0.89-0.66 1.77-1.32 2.69-2 2.79-2.42 4.98-5.14 7.31-8 0.7-0.66 1.4-1.32 2.12-2 2.31-2.46 3.39-4.97 4.88-8 1.43-2.62 2.9-5.22 4.38-7.81l2.4-4.26c0.38-0.67 0.77-1.35 1.16-2.05 1.7-3.01 3.35-6.04 4.99-9.08 1.07-1.8 1.07-1.8 2.52-3.69 1.78-2.43 3.14-4.94 4.55-7.61 1.8-3.4 3.68-6.44 6-9.5 0.35-0.89 0.7-1.77 1.06-2.69 0.94-2.31 0.94-2.31 2.94-3.31 0.83-1.85 0.83-1.85 1.5-4 0.72-2.19 0.72-2.19 1.5-4l2-1c1.02-1.68 1.02-1.68 1.94-3.69 0.51-1.07 0.51-1.07 1.04-2.17 0.51-1.06 0.51-1.06 1.02-2.14l3-6h2c0.18-0.61 0.36-1.23 0.55-1.86 0.25-0.81 0.5-1.62 0.76-2.45 0.25-0.8 0.49-1.6 0.74-2.43 0.95-2.26 0.95-2.26 2.36-3.67 2.26-2.26 3.3-4.84 4.65-7.71 2.72-5.77 2.72-5.77 4.94-6.88 0.98-1.88 1.94-3.77 2.86-5.69 1.52-3.09 3.22-6.06 4.91-9.06 1.21-2.22 2.32-4.47 3.42-6.75 1.81-3.5 1.81-3.5 3.81-4.5 0.73-2.31 1.4-4.65 2-7h2l4-9h2c0.31-1.18 0.31-1.18 0.62-2.38 1.57-4.13 3.69-7.61 6.04-11.4 1.47-2.31 1.47-2.31 2.34-5.27h2c0.26-0.87 0.51-1.74 0.78-2.63 1.25-3.46 2.8-6.16 4.78-9.25 3.7-5.81 7.09-11.8 10.4-17.8 1.74-3.16 3.36-5.87 6.06-8.29 0.29-0.62 0.58-1.24 0.88-1.88 1.54-2.92 3.76-4.81 6.12-7.12 0.84-1.06 1.68-2.12 2.5-3.19 2.56-2.88 4.02-3.49 7.5-4.81 0.29-0.62 0.58-1.23 0.88-1.87 3.92-7.43 16.7-10.7 24.1-13.1 15.8-4.13 31.7-0.01 45.6 7.87 4.21 2.52 8.26 5.36 11.4 9.13v2c0.59 0.26 1.18 0.52 1.79 0.78 6.92 3.82 12.2 12.6 16.2 19.2v2h2c0.67 1.29 1.34 2.58 2 3.88 0.37 0.71 0.74 1.43 1.12 2.17 0.88 1.95 0.88 1.95 0.88 3.95h2c0.56 1.13 1.11 2.27 1.69 3.44 4.93 9.85 10.6 19.3 16.2 28.8 2.88 4.92 5.66 9.83 8.16 15 1.61 3.19 3.49 6.22 5.36 9.27 2.49 4.1 4.96 8.21 7.25 12.4 2.09 3.84 4.49 7.42 6.95 11 4.36 6.67 4.36 6.67 4.36 10.1h2c0.27 0.49 0.54 0.99 0.82 1.49 6.73 12.2 6.73 12.2 13.8 24.2 2.6 4.36 4.99 8.82 7.37 13.3 0.34 0.65 0.69 1.29 1.04 1.96 1.96 3.77 1.96 3.77 1.96 6.04h2c0.29 0.62 0.58 1.23 0.88 1.87 2.55 5.27 5.31 10.1 8.69 14.9 1.43 2.2 1.43 2.2 2.71 4.78 2.48 4.93 5.3 9.66 8.1 14.4 0.61 1.06 1.23 2.11 1.86 3.2 3.07 5.24 6.15 10.5 9.26 15.7 5.41 9.08 10.7 18.2 15.5 27.6 2.31 4.44 4.84 8.58 7.71 12.7 1.66 2.49 2.91 5.11 4.2 7.81 1.67 3.29 3.62 6.41 5.54 9.57 1.86 3.09 3.61 6.24 5.34 9.41 0.83 1.48 1.67 2.93 2.54 4.38 2.12 3.53 4.17 7.09 6.2 10.7 0.4 0.69 0.8 1.38 1.21 2.09 2.22 3.91 3.97 7.63 5.23 12h2c0.52 1.07 1.03 2.14 1.56 3.25 1.83 3.68 3.85 7.21 5.94 10.8 4.08 6.96 7.54 13.4 9.69 21.2 0.4 0.89 0.4 0.89 0.81 1.79 0.99 0.33 1.98 0.66 3 1-0.15 1.05-0.15 1.05-0.31 2.12 0.45 4.19 2.47 5.83 5.31 8.88-3.61 0.92-5.98 0.97-9.56 0-6.94-1.54-13.6-0.63-20.5 0.5-4.57 0.58-9.06 0.75-13.7 0.85-0.95 0.03-1.89 0.05-2.86 0.07-3.09 0.08-6.18 0.14-9.28 0.2-1.06 0.03-2.12 0.05-3.21 0.07-85.9 1.65-85.9 1.65-110-13.7-0.62-0.36-1.25-0.73-1.89-1.11-14.4-8.67-23.7-20.2-32.6-34.2-0.4-0.64-0.8-1.27-1.21-1.92-2.47-4.02-4.48-8.12-6.34-12.4-1.72-3.95-3.59-7.81-5.45-11.7-3.88-8.17-7.72-16.4-11.3-24.7-0.31-0.72-0.62-1.43-0.94-2.17-0.61-1.41-1.21-2.81-1.81-4.22-1.6-3.71-3.37-7.14-5.5-10.6-1.42-3.16-2.74-6.34-4.02-9.55-2.69-6.65-5.71-13-8.95-19.4-3.18-6.27-6.13-12.6-9.03-19-0.99 0.33-1.98 0.66-3 1-0.12 1.02-0.12 1.02-0.25 2.06-0.95 3.73-2.79 6.68-4.75 9.94-0.88 1.56-1.76 3.12-2.62 4.69-0.41 0.72-0.81 1.45-1.23 2.2-1.1 2.01-2.14 4.05-3.15 6.11h-2c-0.19 0.95-0.37 1.9-0.56 2.88-1.28 4.53-3.95 7.88-6.71 11.6-1.9 2.73-3.3 5.48-4.7 8.48-1.2 2.32-2.61 4.41-4.09 6.56-2.54 3.7-4.34 7.26-5.94 11.4h-2c-0.25 1.03-0.5 2.06-0.75 3.12-1.08 3.82-2.95 6.65-5.25 9.88-0.69 1.32-1.38 2.65-2 4l-2-1c-0.08 0.87-0.16 1.73-0.25 2.62-0.71 3.2-1.63 4.9-3.52 7.5-1.59 2.44-2.79 5-4.04 7.63-2.48 5.06-5.34 9.52-8.65 14.1-1.82 2.6-3.15 5.35-4.54 8.19-0.44 0.44-0.89 0.88-1.35 1.33-2.1 2.12-3.65 4.47-5.34 6.92-3.62 5.03-7.41 8.98-12.3 12.8-0.66 0.51-1.31 1.01-1.99 1.54-4.66 3.46-4.66 3.46-7.01 3.46l-1 3c-2.78 1.75-5.94 2.8-9 4-0.99 0.42-1.99 0.83-3.01 1.26-15.9 6.28-33.8 7.73-50.9 8.05-0.93 0.02-1.87 0.04-2.83 0.06-3.1 0.07-6.19 0.13-9.29 0.18-1.63 0.04-1.63 0.04-3.29 0.07-26.3 0.5-52.7 0.53-79 0.51h-12-2.04c-1.37 0-2.74 0-4.1 0.01-12.6 0-25.3-0.01-37.9-0.01-10.8-0.01-21.6 0-32.4 0-12.7 0.01-25.3 0.01-38 0h-4.05-2.01c-4.63 0-9.27 0-13.9 0.01-6.22 0-12.4 0-18.7-0.01h-6.82c-29.9 0.03-29.9 0.03-38.9-3.13-2.48-0.39-2.48-0.39-4.93-0.53-0.9-0.07-1.8-0.14-2.72-0.21-1.85-0.13-3.71-0.26-5.56-0.38-5.62-0.45-9.71-1.47-14.8-3.88-1.66-0.36-3.33-0.7-5-1-3.38-1.21-6.68-2.62-10-4-1.73-0.68-1.73-0.68-3.5-1.38-15.7-7.28-29.7-18.3-36.5-34.6-0.86-2.62-1.65-5.24-2.39-7.9-0.55-2.13-0.55-2.13-1.61-4.1-1.11-14.2-0.21-27.4 4-41 0.35-1.64 0.69-3.29 1-4.94 0.83-3.89 2.3-7.33 4-10.9 0.68-1.45 1.3-2.92 1.88-4.41 1.81-4.4 4.04-8.6 6.2-12.8 1.81-3.57 3.51-7.12 4.92-10.9h2c0.16-1.09 0.16-1.09 0.33-2.21 0.71-2.96 1.73-4.86 3.36-7.41 2.83-4.56 5.41-9.2 7.92-13.9 1.39-2.45 1.39-2.45 2.88-4.4 1.87-2.54 3.11-5.22 4.51-8.05 1.75-3.1 3.57-6.18 5.38-9.25 3.43-5.88 6.78-11.7 9.62-17.9 1.09-1.98 2.38-3.24 4-4.81 0.97-1.63 1.92-3.27 2.84-4.93 1.29-2.31 2.66-4.56 4.04-6.82 2.07-3.44 4.04-6.9 5.93-10.4 2.8-5.18 5.81-10.2 8.87-15.2 2.77-4.6 5.38-9.27 7.92-14 1.89-3.44 3.92-6.78 5.95-10.1 1.84-3.07 3.56-6.18 5.27-9.31 1.35-2.41 2.76-4.75 4.18-7.11 1.11-1.89 2.21-3.79 3.31-5.69 3.19-5.46 6.42-10.9 9.69-16.3 4.25-7.04 8.41-14.1 12.4-21.3 3.22-5.81 6.67-11.5 10.1-17.2 4.28-7.06 8.43-14.2 12-21.6 1.75-3.36 3.83-6.39 5.96-9.52 2.4-3.67 4.46-7.5 6.54-11.4 9.81-17.9 9.81-17.9 14.2-24.4 1.81-2.6 1.81-2.6 3.19-5.5 1.22-2.43 2.48-4.64 3.94-6.93 2.72-4.3 5.18-8.72 7.62-13.2 1.66-3 3.33-6 5-9 0.34-0.61 0.68-1.23 1.03-1.86 1.18-2.11 2.35-4.22 3.53-6.33 0.38-0.67 0.75-1.35 1.14-2.05 2.27-4.05 4.72-7.9 7.3-11.8 1.02-1.8 2.02-3.61 3-5.44 4.18-7.81 8.69-15.3 13.5-22.8 2.24-3.54 4-6.89 5.54-10.8l2-1c0.68-1.61 1.36-3.22 2.02-4.84 1.54-3.39 3.54-6.49 5.49-9.65 1.38-2.32 2.58-4.65 3.74-7.07 1.75-3.44 1.75-3.44 3.75-4.44 0.81-1.45 1.55-2.94 2.25-4.44 2.2-4.54 4.65-8.83 7.29-13.1 1.35-2.25 2.64-4.51 3.9-6.81 3.57-6.49 7.31-12.9 11.1-19.2 1.27-2.13 2.49-4.28 3.68-6.45 2.01-3.64 4.08-7.23 6.19-10.8 2.23-3.79 4.37-7.61 6.44-11.5 2.72-5.05 5.79-9.82 8.93-14.6 2.75-4.22 5.01-8.47 7.19-13 1.33-2 2.67-4 4-6 2.05-3.64 4.02-7.32 6-11 3.05-5.59 6.23-11.1 9.53-16.5 1.37-2.3 2.68-4.62 3.97-6.97 3.14-5.72 6.54-11.3 9.93-16.9 2.27-3.81 4.44-7.68 6.61-11.6 1.42-2.5 2.83-4.91 4.58-7.2 1.48-1.86 1.48-1.86 2.31-4.22 1.34-3.34 3.2-6.26 5.13-9.28 2.87-4.49 2.87-4.49 4.94-9.38l2-1c0.83-1.85 0.83-1.85 1.5-4 0.72-2.19 0.72-2.19 1.5-4l2-1c1.02-1.66 2.02-3.32 3-5l2-2z" fill="#008FD4"/>
<path transform="translate(990 800)" d="m0 0c3.68 3.11 3.68 3.11 5.27 4.99v2c0.59 0.26 1.18 0.52 1.79 0.78 6.92 3.82 12.2 12.6 16.2 19.2v2h2c0.67 1.29 1.34 2.58 2 3.88 0.37 0.72 0.74 1.44 1.12 2.18 0.88 1.94 0.88 1.94 0.88 3.94h2c0.56 1.14 1.11 2.27 1.69 3.44 4.93 9.85 10.6 19.3 16.2 28.8 2.88 4.92 5.66 9.83 8.16 15 1.61 3.19 3.49 6.21 5.36 9.26 2.49 4.11 4.96 8.21 7.25 12.4 2.09 3.84 4.49 7.42 6.95 11 4.36 6.67 4.36 6.67 4.36 10.1h2c0.27 0.5 0.54 0.99 0.82 1.5 6.73 12.2 6.73 12.2 13.8 24.2 2.59 4.36 4.99 8.83 7.37 13.3 0.52 0.97 0.52 0.97 1.04 1.96 1.96 3.78 1.96 3.78 1.96 6.04h2c0.29 0.62 0.58 1.24 0.88 1.87 2.55 5.27 5.31 10.2 8.69 14.9 1.43 2.2 1.43 2.2 2.71 4.78 2.48 4.94 5.3 9.66 8.09 14.4 0.93 1.59 0.93 1.59 1.87 3.2 3.07 5.24 6.15 10.5 9.26 15.7 5.41 9.08 10.7 18.2 15.5 27.6 2.31 4.43 4.84 8.57 7.71 12.7 1.65 2.5 2.91 5.11 4.2 7.81 1.67 3.3 3.62 6.41 5.54 9.57 1.86 3.1 3.61 6.25 5.34 9.42 0.82 1.47 1.67 2.92 2.54 4.37 2.12 3.53 4.17 7.09 6.2 10.7 0.4 0.69 0.8 1.38 1.21 2.09 2.22 3.91 3.97 7.63 5.23 12h2c0.52 1.07 1.03 2.15 1.56 3.25 1.83 3.68 3.85 7.21 5.94 10.8 4.08 6.96 7.54 13.4 9.69 21.2 0.4 0.88 0.4 0.88 0.81 1.78 0.99 0.33 1.98 0.66 3 1-0.1 0.7-0.21 1.4-0.31 2.13 0.45 4.18 2.47 5.82 5.31 8.87-3.61 0.92-5.98 0.97-9.56 0-6.94-1.54-13.6-0.63-20.5 0.5-4.57 0.58-9.06 0.75-13.7 0.85-1.42 0.04-1.42 0.04-2.86 0.08-3.09 0.07-6.19 0.14-9.28 0.2-1.06 0.02-2.12 0.04-3.21 0.06-85.9 1.66-85.9 1.66-110-13.7-0.62-0.36-1.25-0.73-1.89-1.1-14.4-8.68-23.7-20.2-32.6-34.2-0.4-0.63-0.8-1.27-1.21-1.92-2.47-4.02-4.48-8.12-6.34-12.4-1.72-3.94-3.59-7.81-5.45-11.7-3.88-8.18-7.72-16.4-11.3-24.7-0.31-0.72-0.62-1.43-0.94-2.17-0.61-1.4-1.21-2.81-1.81-4.22-1.6-3.7-3.37-7.14-5.5-10.6-1.42-3.16-2.74-6.34-4.02-9.55-2.69-6.64-5.71-13-8.95-19.4-3.18-6.27-6.14-12.6-9.03-19-0.99 0.33-1.98 0.66-3 1-0.08 0.68-0.17 1.36-0.25 2.06-0.95 3.73-2.79 6.68-4.75 9.94-0.88 1.56-1.76 3.12-2.63 4.69-0.4 0.73-0.8 1.45-1.22 2.2-1.1 2.02-2.14 4.05-3.15 6.11h-2c-0.19 0.95-0.37 1.9-0.56 2.88-1.28 4.54-3.95 7.88-6.71 11.6-1.9 2.72-3.3 5.47-4.7 8.47-1.2 2.33-2.61 4.41-4.09 6.56-2.54 3.7-4.34 7.26-5.94 11.4h-2c-0.37 1.55-0.37 1.55-0.75 3.13-1.08 3.81-2.95 6.64-5.25 9.87-0.69 1.32-1.38 2.65-2 4l-2-1c-0.08 0.87-0.17 1.73-0.25 2.63-0.71 3.19-1.63 4.89-3.52 7.49-1.59 2.44-2.79 5-4.04 7.63-2.48 5.06-5.34 9.52-8.66 14.1-1.81 2.6-3.14 5.35-4.53 8.19-0.45 0.44-0.89 0.88-1.35 1.33-2.1 2.12-3.65 4.47-5.34 6.92-3.62 5.03-7.41 8.98-12.3 12.8-0.66 0.51-1.31 1.02-1.99 1.54-4.66 3.46-4.66 3.46-7.01 3.46l-1 3c-2.78 1.76-5.94 2.81-9 4-1.12 0.45-2.24 0.9-3.39 1.37-6.78 2.6-12.3 4.48-19.6 3.63l-2-2c2.97-0.33 5.94-0.66 9-1l1-4c0.64 0.17 1.28 0.33 1.94 0.5 1.87 0.54 1.87 0.54 3.06 0.5-0.23-0.6-0.45-1.19-0.69-1.81-0.31-2.19-0.31-2.19 0.88-3.81 1.85-1.41 3.73-2.34 5.81-3.38l1-2c2.06-1.12 2.06-1.12 4-2l-2-2 1-1c-0.25-3.52-0.25-3.52-1-7l-2-1v-1c-0.45 0.5-0.91 0.99-1.38 1.5-1.62 1.5-1.62 1.5-3.62 1.5-1.13-3.75-1.13-3.75 0-6l-2-1 1-2h2v-2h-2c-0.5-1.98-0.5-1.98-1-4h-3c-0.5-1.98-0.5-1.98-1-4l4-1-2-2 4-4h-2c0-2 0-2 2-4l-2-2h3v-3c2.28-2.28 3.51-2.96 6.75-3.19 0.74 0.07 1.48 0.13 2.25 0.19v-2c-0.99-0.33-1.98-0.66-3-1h2v-2l-2-1v-6c-1.6 2.54-2.07 3.61-1.56 6.63 0.18 0.78 0.37 1.56 0.56 2.37l-1 2h-2v-4l-4 4c-0.99-0.33-1.98-0.66-3-1-0.81-1.87-0.81-1.87-1-4l2-3-2-1 3-2c0.99 0.33 1.98 0.66 3 1v-2h-2v-2h3l1-4c-3.77 0-4.91 0.24-8 2l-3-2c-0.19-2.62-0.19-2.62 0-5 0.99-0.33 1.98-0.66 3-1l-2-4c0.99-0.33 1.98-0.66 3-1l1-3c-1.98 0.33-3.96 0.66-6 1l2-5h3c-0.05-0.67-0.09-1.35-0.14-2.04-0.3-7.43-0.3-7.43 2.08-10.3 1.02-0.84 1.02-0.84 2.06-1.69 0.8-2.64 0.8-2.64 1-5h2l-2-5h-2v-2h2l-1-8h-3l-2 4h-2l-1 3-2-1v-2l-1-2-2 1c-1.46-2.65-2-3.89-2-7-0.95-2.15-0.95-2.15-2-4h-3l4-2c-0.99-0.33-1.98-0.66-3-1-0.73-2.06-0.73-2.06-1.19-4.56-0.24-1.24-0.24-1.24-0.48-2.5-0.11-0.64-0.22-1.28-0.33-1.94l4 1 2-3-2-1h2v-2h2v-2h-2c-0.24-4.82 0.55-8.46 2-13h2c0.49-0.99 0.49-0.99 1-2h2v-3h2c-0.21-0.6-0.41-1.19-0.63-1.81-0.37-2.19-0.37-2.19 1.63-5.19h2c-0.5-1.98-0.5-1.98-1-4l-5-1c0.21-0.6 0.41-1.19 0.62-1.81 0.69-2.47 0.69-2.47-1.62-5.19 0.44-2.06 0.44-2.06 1-4-0.5-0.99-0.5-0.99-1-2l1-2h2l1 1-1-3c-0.99-0.33-1.98-0.66-3-1l1-1h-2c0.34 1.15 0.34 1.15 0.69 2.31 0.31 2.69 0.31 2.69-0.75 4.5-2.7 1.66-4.85 1.4-7.94 1.19l2-1v-3h-3l-2 5-4-2c0.43-4.6 0.69-6.85 4-10 1.09-1.83 1.09-1.83 2-3.81 0.5-1.05 0.5-1.05 1.02-2.11 0.32-0.69 0.64-1.37 0.98-2.08l3-6h2c0.18-0.61 0.36-1.23 0.55-1.86 0.25-0.81 0.5-1.62 0.76-2.45 0.25-0.8 0.49-1.6 0.74-2.43 0.95-2.26 0.95-2.26 2.36-3.67 2.26-2.26 3.3-4.84 4.65-7.71 2.72-5.77 2.72-5.77 4.94-6.88 0.98-1.88 1.94-3.77 2.86-5.69 1.52-3.08 3.22-6.06 4.91-9.06 1.21-2.22 2.32-4.47 3.42-6.75 1.81-3.5 1.81-3.5 3.81-4.5 0.73-2.31 1.4-4.65 2-7h2l4-9h2c0.21-0.78 0.41-1.57 0.62-2.37 1.57-4.14 3.69-7.62 6.04-11.4 1.47-2.3 1.47-2.3 2.34-5.27h2c0.26-0.87 0.51-1.74 0.78-2.63 1.25-3.45 2.8-6.16 4.78-9.24 3.7-5.82 7.09-11.8 10.4-17.8 1.74-3.17 3.36-5.88 6.06-8.3 0.29-0.62 0.58-1.24 0.87-1.87 1.55-2.92 3.77-4.82 6.13-7.13 0.84-1.05 1.67-2.12 2.5-3.19 2.56-2.88 4.02-3.49 7.5-4.81 0.29-0.62 0.58-1.23 0.87-1.87 3.93-7.43 16.7-10.7 24.1-13.1 18.2-4.75 37 1.15 51.7 12z" fill="#00A4D9"/>
<path transform="translate(778,421)" d="m0 0c2 3 2 3 3.25 5.56 1.9 3.74 4.04 7.28 6.21 10.9 1.4 2.33 2.73 4.69 4.04 7.07 1.71 3.1 3.48 6.16 5.31 9.19 3.85 6.37 7.52 12.8 11.2 19.3 0.53 0.93 1.07 1.86 1.62 2.82 0.46 0.8 0.91 1.61 1.38 2.43 0.39 0.69 0.78 1.37 1.19 2.08 0.81 1.67 0.81 1.67 0.81 3.67h2c0.79 1.56 1.59 3.12 2.38 4.69 0.44 0.87 0.88 1.74 1.33 2.63 1.22 2.53 2.28 5.07 3.29 7.68h2c0.31 0.64 0.63 1.28 0.95 1.94 3.09 6.24 6.22 12.3 10.1 18.1 1.92 2.9 3.44 5.81 4.94 8.94 0.56 1.07 1.11 2.14 1.69 3.25 1.31 2.75 1.31 2.75 1.31 4.75h2c1.97 3.37 3.92 6.75 5.88 10.1 0.55 0.96 1.11 1.91 1.68 2.89 2.63 4.57 5.07 8.85 6.44 14h2c2.19 4.56 3.57 7.84 3 13-1 2.38-1 2.38-2 4h-2c-0.26 0.87-0.52 1.74-0.78 2.64-1.24 3.41-2.75 6.06-4.72 9.11-3.36 5.29-6.44 10.7-9.44 16.2-3.07 5.62-6.28 11.1-9.81 16.4-3.3 4.99-6.06 10.1-8.65 15.5-3.93 7.73-8.64 15.1-13.3 22.4-2.49 3.94-4.68 8.03-6.88 12.1-1.41 2.58-2.91 5.09-4.43 7.61-0.77 1.31-1.54 2.62-2.3 3.93-0.42 0.71-0.84 1.43-1.27 2.16-0.86 1.47-1.72 2.94-2.58 4.41-2.11 3.6-4.26 7.17-6.48 10.7-1.92 3.04-3.69 6.12-5.37 9.3-1.86 3.42-3.71 6.84-5.69 10.2-0.37 0.64-0.75 1.28-1.13 1.95-0.59 0.67-0.59 0.67-1.18 1.36h-3l1 3c-1 2.35-1 2.35-2.56 5.06-0.55 0.97-1.11 1.94-1.67 2.94-2.16 3.66-4.34 7.3-6.57 10.9-1.33 2.17-1.33 2.17-2.2 5.09h-2c-0.21 0.78-0.41 1.57-0.62 2.38-2.74 7.22-5.67 12.7-12.4 16.6l-1 3-8 1v2h-3c-0.25 0.95-0.5 1.9-0.75 2.88-1.25 3.12-1.25 3.12-3.37 4.5-0.93 0.3-0.93 0.3-1.88 0.62v2c-0.99-0.33-1.98-0.66-3-1v-1l-5-1v2c0.99 0.33 1.98 0.66 3 1v2c-3.07 0.91-5.8 1.09-9 1l1-2-2 1c-0.99 0.33-1.98 0.66-3 1-3-2-3-2-4-4l2-1c-1.67-1.74-1.67-1.74-4-3-2.73 0.71-2.73 0.71-5 2l4-4-1-2h4l-2-1-1-2h-2v2c-3.12-0.34-4.62-0.62-6.88-2.88-0.37-0.7-0.74-1.4-1.12-2.12 1-3 1-3 3.06-4.19 0.96-0.4 0.96-0.4 1.94-0.81v-2h-6v-2c-1.36 0.46-1.36 0.46-2.75 0.94-2.42 0.79-4.78 1.49-7.25 2.06v-2c-0.71 0.16-1.42 0.31-2.15 0.47-0.92 0.2-1.84 0.39-2.79 0.59-0.91 0.2-1.83 0.4-2.77 0.6-0.76 0.11-1.51 0.22-2.29 0.34l-1-1c-2.02-0.07-4.04-0.08-6.06-0.06-1.66 0.01-1.66 0.01-3.35 0.02-0.85 0.02-1.71 0.03-2.59 0.04v-2c1.98-0.33 3.96-0.66 6-1-1.06-3.19-1.96-4.33-4.75-6.12-2.84-1.11-5.23-1.02-8.25-0.88l4-4-2-2 1-2h2c-0.19-0.78-0.37-1.57-0.56-2.38-0.44-2.62-0.44-2.62 0.56-4.62-0.99-0.33-1.98-0.66-3-1l1-2c0.99 0.33 1.98 0.66 3 1-0.5-1.49-0.5-1.49-1-3h-7l-1-2 2-2-2-2c2-2 2-2 4-3l2 2v-2c-0.99-0.33-1.98-0.66-3-1-0.5-4.95-0.5-4.95-1-10l-4 1-2-3c1.98-0.33 3.96-0.66 6-1l-2-1v-2h-2v-2h-2v-2c-0.87 0.77-0.87 0.77-1.75 1.56-2.25 1.44-2.25 1.44-4.5 1.13-0.87-0.34-0.87-0.34-1.75-0.69 0.56-1.94 0.56-1.94 2-4 3.56-0.81 3.56-0.81 7-1l1 1 1-2h-4l-1-1c-0.56 0.16-1.11 0.33-1.69 0.5-2.98 0.64-5.35 0.11-8.31-0.5l-1 3c-1.56 1.69-1.56 1.69-3 3l4 4h-3c-1.01 3.05-1.01 3.05 0 6l-2 1-1 3c-3-1-3-1-4-2l-3 3-3-2-1 3-3-2v-2l4-2-2-8h2l1-6c2 3.75 2 3.75 2 6h1c-0.11-1.07-0.11-1.07-0.22-2.15-0.09-0.92-0.18-1.84-0.28-2.79-0.09-0.91-0.19-1.83-0.28-2.77-0.27-2.77 0.08-4.59 0.78-7.29v2c3.25-1.72 3.25-1.72 4-5l-2-1c0.64-0.12 1.28-0.25 1.94-0.38 0.68-0.2 1.36-0.41 2.06-0.62l1-2h-2v-3l5 1v-4c-1.98 0.66-3.96 1.32-6 2 1.92-3.99 4.23-7.7 6.56-11.5 1.51-2.51 1.51-2.51 2.5-5.29 0.94-2.25 0.94-2.25 2.94-3.25 0.68-1.61 1.36-3.22 2.02-4.84 1.54-3.39 3.54-6.49 5.49-9.65 1.38-2.32 2.58-4.65 3.74-7.07 1.75-3.44 1.75-3.44 3.75-4.44 0.81-1.45 1.55-2.94 2.25-4.44 2.2-4.54 4.65-8.83 7.29-13.1 1.35-2.25 2.64-4.51 3.9-6.81 3.57-6.49 7.31-12.9 11.1-19.2 1.27-2.13 2.49-4.28 3.68-6.45 2.01-3.64 4.08-7.23 6.19-10.8 2.23-3.79 4.37-7.61 6.44-11.5 2.72-5.05 5.79-9.82 8.93-14.6 2.75-4.22 5.01-8.47 7.19-13 1.33-2 2.67-4 4-6 2.05-3.64 4.02-7.32 6-11 3.05-5.59 6.23-11.1 9.53-16.5 1.37-2.3 2.68-4.62 3.97-6.97 3.14-5.72 6.54-11.3 9.93-16.9 2.27-3.81 4.44-7.68 6.61-11.6 1.42-2.5 2.83-4.91 4.58-7.2 1.48-1.86 1.48-1.86 2.31-4.22 1.34-3.34 3.2-6.26 5.13-9.28 2.87-4.49 2.87-4.49 4.94-9.38 0.99-0.5 0.99-0.5 2-1 0.83-1.85 0.83-1.85 1.5-4 0.72-2.19 0.72-2.19 1.5-4l2-1c1.02-1.66 2.02-3.32 3-5l2-2z" fill="#0C77C7"/>
<path transform="translate(828,960)" d="m0 0c2 1 2 1 3 2 0.37 1.99 0.7 3.99 1 6-0.99-0.33-1.98-0.66-3-1l1-2h-2c0.19 0.76 0.37 1.53 0.56 2.31 0.44 2.69 0.44 2.69-0.56 5.69 0.87 2.17 0.87 2.17 2 4l-2 3h5l1 5h-2l-1 7h-2v3h-2l-1 3-2 1c-0.43 2.06-0.43 2.06-0.56 4.44-0.35 4.37-0.35 4.37-1.44 6.56h2v2h-2c0.06 0.78 0.12 1.57 0.19 2.38-0.06 0.86-0.13 1.73-0.19 2.62l-3 2v-2h-3c0.34 2.97 0.34 2.97 1 6l2 1-1 2h2l1-2v3l-1 1 3 2c0.89 2.5 1 4.32 1 7l1 2 2-2v4l2 1c3.11-1.99 3.11-1.99 4.75-5.19 0.08-0.6 0.16-1.19 0.25-1.81 2.76 2.49 4.62 4.2 5 8l-1 2h-2v2h2l2 5-2 1c-0.66 2.53-0.66 2.53-1 5-1.49 0.49-1.49 0.49-3 1v13l-4-1-1 4h5c-0.38 1.94-0.38 1.94-1 4l-2 1c0.99 1.32 1.98 2.64 3 4l-4 1v4c1.79 0.78 1.79 0.78 4 1 2.25-1.35 2.25-1.35 4-3v2h2v5l-4-1v2h2v2l-4 1v3l-1 3 2 2c2.17-0.83 2.17-0.83 3-3h2v4h2c-0.66-3.61-0.66-3.61-2-7h2v-5l4 2h-2c0.99 3.63 1.98 7.26 3 11-3 1-6 2-9 3v3c0 1 0 1-1 4h-2v2l4-1-1 2h-2l-1 4 2 1-2 2h-2l1 2 4-1c-0.33 0.62-0.66 1.24-1 1.88-1.14 2.03-1.14 2.03-1 4.12h2v2h-2c0.83 2.17 0.83 2.17 3 3l-2 3v3l6-5 2 1-2 2c0.31 0.69 0.62 1.37 0.95 2.08 0.38 0.9 0.77 1.8 1.17 2.73 0.4 0.9 0.79 1.79 1.2 2.71 0.22 0.82 0.45 1.64 0.68 2.48l-2 3h-3c-0.34 0.9-0.34 0.9-0.69 1.81-1.65 2.75-3.51 3.71-6.31 5.19l2 2-2 5-2-3c-0.99-0.33-1.98-0.66-3-1l2 5c-2.97 0.33-5.94 0.66-9 1h6c-17.8 11.9-57.5 5.84-78 6-1.02 0.01-2.04 0.02-3.1 0.03-35 0.28-69.9-0.34-105-1.03v-2c-3.63-0.99-7.26-1.98-11-3v-2c-1.05-0.19-1.05-0.19-2.12-0.38-3.06-0.66-5.93-1.59-8.88-2.62v-2c-1.58-0.37-1.58-0.37-3.19-0.75-3.65-1.03-5.9-2.8-8.81-5.25-2.68-1.24-2.68-1.24-5-2v-2c-2.33-1.21-4.5-2.17-7-3-0.62-0.64-1.24-1.28-1.88-1.94-1.98-2.2-1.98-2.2-4.62-3-3.27-1.39-4.59-3.09-6.5-6.06v-4h-2v-2h-3v-4h-2v-5h-2c-0.11-0.86-0.22-1.71-0.33-2.6-0.89-7.3-0.89-7.3-3.23-14.2-3.35-7.42-2.34-13.5-0.44-21.2h2c-0.06-0.98-0.12-1.96-0.18-2.97 0.01-4.54 1.4-8.32 2.99-12.5 0.26-0.72 0.52-1.44 0.79-2.18 1.65-4.51 3.49-8.92 5.4-13.3 0.67-1.67 1.34-3.33 2-5 9.97-1.71 19.5-2.26 29.6-2.16 1.49 0.01 2.99 0.01 4.49 0.02 3.17 0.01 6.34 0.03 9.51 0.05 8.38 0.05 16.8 0.06 25.2 0.08h2.56c16.1 0.04 32.2-0.06 48.3-0.31 2.62-0.04 5.24-0.07 7.86-0.1 3.63-0.05 7.26-0.1 10.9-0.17 1.05-0.01 2.1-0.02 3.19-0.03 14-0.29 26.5-4.27 37.4-13.4 1.33-0.99 1.33-0.99 2.69-2 2.79-2.42 4.98-5.14 7.31-8 0.7-0.66 1.4-1.32 2.12-2 2.31-2.46 3.39-4.97 4.88-8 1.43-2.62 2.9-5.22 4.38-7.81l2.4-4.26c0.38-0.67 0.77-1.35 1.16-2.05 1.7-3.01 3.35-6.04 4.99-9.08 1.07-1.8 1.07-1.8 2.52-3.69 1.78-2.43 3.14-4.94 4.55-7.61 1.8-3.4 3.69-6.43 6-9.5 0.33-0.89 0.66-1.77 1-2.69 0.33-0.76 0.66-1.52 1-2.31 3-1 3-1 5.19-0.06 0.6 0.35 1.19 0.7 1.81 1.06v-2h2v-2h3v3l5-1v-3l1-3 2-1z" fill="#008FD4"/>
<path transform="translate(490,915)" d="m0 0h2c-0.98 5.91-2.2 9.29-6 14 0.13 2.75 0.13 2.75 1 5h-2v3l2 1h-3c-0.5-1.49-0.5-1.49-1-3v4h2c1.26 3.77 0.37 5.37-1 9l-1-3c-0.99-1.49-0.99-1.49-2-3 0.21 0.78 0.41 1.57 0.62 2.38 0.13 0.86 0.25 1.73 0.38 2.62l-2 2 1 3h2c-1 2.99-1.75 3.95-4 6l1 3v4h-5c-0.5 0.99-0.5 0.99-1 2h2c-0.5 0.99-0.5 0.99-1 2l4-1-1 3c-3.06 1.19-3.06 1.19-6 2 1.49 0.5 1.49 0.5 3 1v4h2v-2h7l-1-1-2-3c2.97-1.24 5.85-2.3 9-3v-2h4c2.23-1.42 2.23-1.42 4-3l-1 4h-2l-1 4c2.47-0.34 2.47-0.34 5-1 0.5-0.99 0.5-0.99 1-2h2v-2c1.49 0.5 1.49 0.5 3 1 0.02 1.09 0.04 2.19 0.06 3.31 0.31 1.22 0.62 2.44 0.94 3.69 3.36 1.76 3.36 1.76 7 3 1.94 2.19 1.94 2.19 3 4v-2h2v3c0.99-0.33 1.98-0.66 3-1v2c1.46 1.63 1.46 1.63 3 3v-2h2c0.29 0.62 0.58 1.24 0.88 1.88 1.06 2.25 1.06 2.25 3.12 4.12l-4 2c-0.74-0.64-1.49-1.28-2.25-1.94-2.46-1.84-3.78-2.62-6.75-3.06 1.44 1.44 3.18 2.12 5 3-1.38 1.5-1.38 1.5-3 3h-2v2c2.95 2.74 3.77 3 8 3l-1-4c0.99-0.33 1.98-0.66 3-1l1 4h2v2h-2v2c-0.99 0.5-0.99 0.5-2 1 0.83 0.62 1.65 1.24 2.5 1.88 0.83 0.7 1.65 1.4 2.5 2.12v2l3-2-2-1 2-2c2.12 0.38 2.12 0.38 4 1l1 6c2.28-2.82 2.28-2.82 2-6l2-1v3c0.74-0.12 1.49-0.25 2.25-0.38 1.36 0.19 1.36 0.19 2.75 0.38 2.06 2.75 2.06 2.75 4 6 1.31 1.35 2.64 2.69 4 4v1l4 1 1 5h2l-1 4h5l1 2c0.99 0.33 1.98 0.66 3 1l1 3c0.58-0.8 1.15-1.61 1.75-2.44 2.25-2.56 2.25-2.56 4-3.44 2.25-0.12 4.04 0.18 6.25 0.57 2.97 0.4 3.69 0.49 6.38-1.07 2.27-3.67 2.93-7.39 3.62-11.6 2.48-0.5 2.48-0.5 5-1-1.04 1.73-2.08 3.45-3.12 5.18-1.1 1.93-1.1 1.93-0.88 4.82h3l-1-4c3.62-3 3.62-3 7-3l-1-3 4-1c-1.05 3.16-2.4 5.66-4.38 8.31-2.21 3-3.85 6.01-5.44 9.37-2.03 4-4.44 7.77-6.79 11.6-1.69 2.81-1.69 2.81-1.39 6.73l5 1v2h-10c-0.1 0.68-0.21 1.36-0.31 2.06-0.67 2.84-1.69 5.29-2.85 7.95-1.46 3.45-2.71 6.97-3.96 10.5-0.4 1.08-0.4 1.08-0.81 2.18-1.58 4.46-2.56 8.61-3.07 13.3h-2c0.03 1.79 0.03 1.79 0.06 3.62 0.02 2.65-0.13 4.66-0.75 7.26-0.47 4.73 1.17 8.67 2.69 13.1 1.57 4.88 2.21 8.86 2 14h2v5h2v4h3v2h2c0.4 1.11 0.4 1.11 0.81 2.25 1.18 2.74 2.08 4.64 4.19 6.75 1.01 0.14 2.02 0.29 3.06 0.44 0.97 0.18 1.94 0.37 2.94 0.56 1.12 2.5 1.12 2.5 2 5 1.93 0.75 1.93 0.75 4 1l3 2v2c0.91 0.27 1.82 0.54 2.75 0.81 3.05 1.12 4.71 2.26 7.25 4.19 2.3 1.1 4.63 2.04 7 3v2c1.33 0.19 1.33 0.19 2.69 0.38 3.01 0.56 5.51 1.39 8.31 2.62v2c1.07 0.12 2.14 0.25 3.25 0.38 3.13 0.52 5.08 1.02 7.75 2.62v2c-17.8 0.78-35.6 1.15-53.5 1.13-2.42 0-4.84 0-7.26 0.01-5.01 0-10 0-15-0.01-6.39-0.01-12.8 0-19.2 0-4.97 0.01-9.94 0.01-14.9 0-2.35 0-4.71 0-7.06 0.01-31 0.02-31 0.02-40.1-3.14-2.48-0.39-2.48-0.39-4.93-0.53-1.35-0.1-1.35-0.1-2.72-0.21-1.85-0.13-3.71-0.26-5.56-0.38-5.62-0.45-9.71-1.47-14.8-3.88-1.66-0.36-3.33-0.7-5-1-3.38-1.21-6.68-2.62-10-4-1.15-0.45-2.31-0.91-3.5-1.38-15.7-7.28-29.7-18.3-36.5-34.6-0.86-2.62-1.65-5.24-2.39-7.9-0.55-2.13-0.55-2.13-1.61-4.1-1.11-14.2-0.21-27.4 4-41 0.35-1.64 0.69-3.29 1-4.94 0.83-3.89 2.3-7.33 4-10.9 0.68-1.45 1.3-2.92 1.88-4.41 1.81-4.4 4.04-8.6 6.2-12.8 1.81-3.57 3.51-7.12 4.92-10.9h2c0.11-0.73 0.22-1.46 0.33-2.21 0.71-2.96 1.73-4.86 3.36-7.41 2.83-4.56 5.41-9.2 7.92-13.9 1.39-2.45 1.39-2.45 2.88-4.4 1.87-2.54 3.11-5.22 4.51-8.05 1.75-3.1 3.57-6.18 5.38-9.25 3.43-5.88 6.78-11.7 9.62-17.9 1.09-1.98 2.38-3.24 4-4.81 0.97-1.63 1.92-3.27 2.84-4.93 1.29-2.31 2.66-4.56 4.04-6.82 2.07-3.44 4.04-6.9 5.93-10.4 2.83-5.24 5.86-10.3 8.94-15.4 2.49-4.09 4.89-8.22 7.25-12.4z" fill="#00A4D9"/>
<path transform="translate(1122,1017)" d="m0 0c2.14 2.01 3.7 3.94 5.16 6.48 0.4 0.68 0.79 1.37 1.2 2.07 0.63 1.09 0.63 1.09 1.26 2.2 0.9 1.54 1.79 3.08 2.68 4.62 0.45 0.78 0.9 1.55 1.37 2.35 1.61 2.76 3.27 5.5 4.94 8.23 3.65 5.98 6.93 12 9.99 18.3 1.76 3.4 3.85 6.49 6.03 9.64 1.69 2.56 2.99 5.21 4.31 7.98 1.67 3.29 3.62 6.41 5.54 9.57 1.86 3.09 3.61 6.24 5.34 9.41 0.83 1.48 1.67 2.93 2.54 4.38 2.12 3.53 4.17 7.09 6.2 10.7 0.4 0.69 0.8 1.38 1.21 2.09 2.22 3.91 3.97 7.63 5.23 12h2c0.52 1.07 1.03 2.14 1.56 3.25 1.83 3.68 3.85 7.21 5.94 10.8 4.08 6.96 7.54 13.4 9.69 21.2 0.27 0.59 0.54 1.18 0.81 1.79 0.99 0.33 1.98 0.66 3 1-0.1 0.7-0.21 1.4-0.31 2.12 0.45 4.19 2.47 5.83 5.31 8.88-3.61 0.92-5.98 0.97-9.56 0-6.94-1.54-13.6-0.63-20.5 0.5-4.57 0.58-9.06 0.75-13.7 0.85-0.95 0.03-1.89 0.05-2.86 0.07-3.09 0.08-6.18 0.14-9.28 0.2-1.06 0.03-2.12 0.05-3.21 0.07-85.9 1.65-85.9 1.65-110-13.7-0.62-0.36-1.25-0.73-1.89-1.11-14.4-8.67-23.7-20.2-32.6-34.2-0.6-0.95-0.6-0.95-1.21-1.92-2.47-4.02-4.48-8.12-6.34-12.4-1.72-3.95-3.59-7.81-5.45-11.7-3.88-8.17-7.72-16.4-11.3-24.7-0.46-1.08-0.46-1.08-0.94-2.17-0.61-1.41-1.21-2.81-1.81-4.22-1.6-3.71-3.41-7.12-5.5-10.6-0.69-2.81-0.69-2.81-1-5 2.97 0.66 5.94 1.32 9 2v2c0.64 0.23 1.28 0.45 1.94 0.69 0.68 0.43 1.36 0.86 2.06 1.31 0.33 1.67 0.67 3.33 1 5 1.97 1.36 1.97 1.36 4 2v2c0.89-0.19 1.77-0.37 2.69-0.56 3.16-0.42 5.26-0.25 8.31 0.56v-2c1.49 0.49 1.49 0.49 3 1l2-2-2-2c3.32-1.13 6.6-2.18 10-3 1.18-0.37 2.35-0.74 3.56-1.12 3.44-0.88 3.44-0.88 6.44 0.12 2.35-0.6 4.69-1.26 7-2v-2h4l1 2h4v-3c1.81-0.62 1.81-0.62 4-1 1.48 0.99 1.48 0.99 3 2h-6v2c5.53-1.19 8.18-2.6 12-7l1 3c3.01-0.64 6-1.31 9-2 1.03-0.23 1.03-0.23 2.09-0.47 3.71-0.93 4.7-1.22 6.91-4.53 3 1 3 1 6 3 0.49-0.99 0.49-0.99 1-2h2v-2c0.99-0.33 1.98-0.66 3-1l2 4c2.15-0.93 2.15-0.93 3.81-3 2.54-2.32 3.84-2.52 7.19-3 0.99-0.33 1.98-0.66 3-1 2.68-0.89 5.22-1.5 8-2 1.67-0.33 3.33-0.67 5-1l-1-4c0.72 0.16 1.44 0.33 2.19 0.5 2.85-0.21 2.85-0.21 4.29-2.11 2.21-3.29 3.58-5.36 3.33-9.39-0.4-0.99-0.4-0.99-0.81-2h-2l-1-7z" fill="#00A4D9"/>
<path transform="translate(631,681)" d="m0 0v4l-5-1v3h2l-1 5c-0.99-0.5-0.99-0.5-2-1l-1 5c-0.99 0.33-1.98 0.66-3 1l2 1c-1.49 0.5-1.49 0.5-3 1 0.99 5.45 0.99 5.45 2 11l-4-2v-3l-1 4h-2v2l2 1c0.62 3.06 0.62 3.06 1 6l-5 1 3 3c0.5-0.99 0.5-0.99 1-2 0.6 0.23 1.2 0.45 1.81 0.69 0.72 0.1 1.45 0.2 2.19 0.31 1.77-1.35 1.77-1.35 3-3l3 3c0.59-1.95 0.59-1.95 1-4l-1-1c0.5-0.8 0.99-1.61 1.5-2.44 1.58-2.21 1.58-2.21 1.5-3.56-0.65-1.34-1.32-2.68-2-4 3.74-4.82 3.74-4.82 7.34-5.33 2.24 0.02 4.43 0.11 6.66 0.33l1-2c2 1 2 1 5 3-0.5 1.49-0.5 1.49-1 3-0.5-0.99-0.5-0.99-1-2-3.49 0.77-3.49 0.77-7 2-0.5 1.49-0.5 1.49-1 3 2.39-0.58 4.67-1.22 7-2v2h2v2h2v2c1.49 0.5 1.49 0.5 3 1-1.98 0.66-3.96 1.32-6 2h4l2 1v10l5 1-3 3-1-3c-1.46 2.65-2 3.89-2 7l-1 1c1.98 0.33 3.96 0.66 6 1 0.5-0.99 0.5-0.99 1-2v2l2 1c-0.5 0.99-0.5 0.99-1 2-1.49 0.5-1.49 0.5-3 1l2 1v7h-2v2l2 2c-1.98 1.49-1.98 1.49-4 3 1.28-0.02 2.56-0.04 3.88-0.06 3.87-0.06 3.87-0.06 6.12 1.06v2l2 2c2 2 2 2 2 4h-8c2.88 0.96 4.59 1.08 7.56 1 4.22-0.11 4.22-0.11 6.44 1 2.08-0.1 2.08-0.1 4.38-0.44 2.95-0.39 5.61-0.56 8.62-0.56 2-0.31 4.01-0.64 6-1v2h6l1 3c-2.48 0.99-2.48 0.99-5 2l1 4c3.99 0.82 6.09 1.01 10 0 0.81 1.69 0.81 1.69 1 4-2.44 2.75-2.44 2.75-5 5l4-2 1 3c2.02 0.73 2.02 0.73 4 1l-2 2 4 2 1-2c0.99 0.33 1.98 0.66 3 1l-1 1h8c-0.5-0.45-0.99-0.91-1.5-1.38-1.5-1.62-1.5-1.62-1.5-3.62 4.55-0.37 4.55-0.37 6.81 1.5 0.39 0.5 0.79 0.99 1.19 1.5l-1-3c0.6-0.23 1.2-0.45 1.81-0.69 2.41-1.21 2.41-1.21 3.75-3.93 0.48-0.79 0.95-1.57 1.44-2.38h3v-2l8-2v-3c2.48-0.99 2.48-0.99 5-2-3.56 7.32-7.41 14.4-11.4 21.5-0.54 0.97-1.09 1.94-1.66 2.93-5.45 9.62-11.2 19-17.1 28.4-1.92 3.34-3.38 6.62-4.83 10.2h-2c-0.25 0.86-0.51 1.73-0.77 2.62-1.28 3.53-2.9 6.34-4.92 9.5-0.72 1.15-1.44 2.29-2.16 3.43-0.36 0.58-0.72 1.15-1.09 1.74-1.62 2.62-3.15 5.29-4.68 7.96-2.15 3.67-4.3 7.34-6.57 10.9-0.44 0.71-0.89 1.43-1.35 2.17-1.75 1.97-2.93 2.12-5.46 2.64l-1 2c-2.06 0.62-2.06 0.62-4 1v1l4 1c-0.99 0.33-1.98 0.66-3 1v4c-1.75 1.81-1.75 1.81-4 3-2.25-0.31-2.25-0.31-4-1-0.43 1.13-0.87 2.27-1.31 3.44-0.56 1.17-1.12 2.35-1.69 3.56-0.99 0.33-1.98 0.66-3 1-0.6 0.31-1.2 0.62-1.81 0.94-2.19 1.06-2.19 1.06-5.31 2.06-2.97 0.8-2.97 0.8-4.88 3h2l-1 3-4-1v-2c-1.98 0.35-1.98 0.35-4 1l-1 2-1-1-2 4-7-2 1-3h-2v-2c-0.99 0.33-1.98 0.66-3 1 0.02-0.8 0.04-1.61 0.06-2.44 0.24-2.49 0.24-2.49-1.06-3.56-1.33-0.36-2.66-0.7-4-1l1-3 4 1-1-4-2 1v-4h3l-0.94-1.88c-0.68-1.37-1.37-2.74-2.06-4.12h-5l-1 2c-1.49-0.99-1.49-0.99-3-2l1-2h2l-3-6c-1.98 0.33-3.96 0.66-6 1 0.66 3.61 0.66 3.61 2 7l2 1-1 3h-5l-2 1v-3c-0.27 0.97-0.54 1.94-0.81 2.94-0.39 1.01-0.79 2.02-1.19 3.06-0.99 0.33-1.98 0.66-3 1l-3-2h-2l-1-2c-4.89 0.42-6.67 2.58-10 6h-3l2-1c-0.6-0.54-1.2-1.07-1.81-1.62-2.71-2.94-5.19-6.25-5.19-10.4 3.13-1.04 3.99-0.93 7 0v-2l-2-1v-2l-5-1v-2c-0.78 0.06-1.57 0.12-2.38 0.19-0.86-0.06-1.73-0.13-2.62-0.19-1.75-2.62-2.39-4.04-3-7l-4-1-1-5 2-1v2l2-1 1-3h3v-2l-2-1c-0.41-2.32-0.74-4.66-1-7 0.99-0.33 1.98-0.66 3-1-3.32-2.77-3.32-2.77-7-5v-2h-2v-2h-2v-2l-2 1v3l-2 1-1 3h-2v2c-0.78-0.16-1.57-0.33-2.38-0.5-2.5-0.56-2.5-0.56-4.62-0.5h-2v-3c1.13-0.12 2.27-0.25 3.44-0.38 1.17-0.2 2.35-0.41 3.56-0.62 0.5-0.99 0.5-0.99 1-2-1.49 0.99-1.49 0.99-3 2-2.69 0.12-2.69 0.12-5 0 0.06-0.76 0.12-1.53 0.19-2.31 0.07-2.74 0.07-2.74-1.69-4.5-0.5-0.39-0.99-0.79-1.5-1.19l4-2c-0.33-0.95-0.66-1.9-1-2.88-1-3.12-1-3.12-1-5.12l4-1v-4c0.5-0.99 0.5-0.99 1-2h3c-0.19-0.78-0.37-1.57-0.56-2.38-0.44-2.62-0.44-2.62 0.56-4.62h2l-2-2c0.36-3.69 2.37-6.57 4.25-9.69 2.13-3.58 4.25-7.16 6.25-10.8 7.73-14 7.73-14 11.8-19.9 1.81-2.6 1.81-2.6 3.19-5.5 1.22-2.43 2.48-4.64 3.94-6.93 2.72-4.3 5.18-8.72 7.62-13.2 1.66-3 3.33-6 5-9 0.34-0.61 0.68-1.23 1.03-1.86 1.18-2.11 2.35-4.22 3.53-6.33 0.38-0.67 0.75-1.35 1.14-2.05 2.27-4.05 4.72-7.9 7.3-11.8 1.02-1.8 2.02-3.61 3-5.44 0.77-1.42 0.77-1.42 1.55-2.87 0.87-1.61 1.73-3.21 2.58-4.81 4.86-8.88 4.86-8.88 10.9-8.88z" fill="#0F87D0"/>
<path transform="translate(620 1051)" d="m0 0c3.33 0.02 6.66 0.02 9.98 0.02 6.46 0.01 12.9 0.08 19.4 0.19 1.05 0.01 2.09 0.02 3.17 0.04 3.01 0.05 6.01 0.13 9.02 0.22 1.34 0.02 1.34 0.02 2.7 0.04 5.86 0.22 9.2 1.52 14.1 4.7 2.72 0.44 2.72 0.44 5.25 0.18 3.11-0.18 4.74-0.19 7.75 0.82v4c0.99 0.49 0.99 0.49 2 1 0.5 1.48 0.5 1.48 1 3 0.87 0.12 1.74 0.24 2.63 0.37 3.27 0.61 6.25 1.51 9.37 2.63-0.03 1.14-0.03 1.14-0.06 2.31-0.07 2.79-0.07 2.79 1.06 5.69 2 1.2 2 1.2 4 2-1 3-1 3-3 4l-2 3 2 1c-0.8 0.83-0.8 0.83-1.62 1.68-0.46 0.77-0.91 1.53-1.38 2.32 0.83 2.57 0.83 2.57 2 5l-1 3c-0.99-0.33-1.98-0.66-3-1v-3l-2-1 2 7h4c0.08 4.16-0.01 7.94-1 12-0.99 0.33-1.98 0.66-3 1v2c0.99 0.33 1.98 0.66 3 1-0.99 0.33-1.98 0.66-3 1l1 6c-0.99 0.33-1.98 0.66-3 1l1 6 5-4 1 5h-2l1 4h3v2l2 1-1 2 2 1v2l3-3c1.53 4.08 0.63 7.79 0 12-2.47 0.99-2.47 0.99-5 2 0.23 0.59 0.46 1.19 0.69 1.81 0.31 2.19 0.31 2.19-0.87 3.94-1.82 1.25-1.82 1.25-5.82 1.25l-1 2 2 1-1 4c-0.99-0.33-1.98-0.66-3-1v-2h-2l1 4h3v2h-4l1 3h-2v2l2 2h-58v-2c-3.63-0.99-7.26-1.98-11-3v-2c-1.05-0.19-1.05-0.19-2.12-0.38-3.05-0.66-5.93-1.6-8.88-2.62v-2c-1.58-0.38-1.58-0.38-3.18-0.75-3.66-1.03-5.91-2.8-8.82-5.25-2.68-1.24-2.68-1.24-5-2v-2c-2.33-1.21-4.49-2.17-7-3-0.62-0.64-1.23-1.28-1.87-1.94-1.98-2.2-1.98-2.2-4.63-3-3.27-1.39-4.59-3.1-6.5-6.06v-4h-2v-2h-3v-4h-2v-5h-2c-0.11-0.86-0.22-1.72-0.33-2.6-0.88-7.31-0.88-7.31-3.23-14.2-3.35-7.42-2.33-13.5-0.44-21.2h2c-0.06-0.98-0.11-1.96-0.17-2.97 0-4.54 1.39-8.33 2.99-12.5 0.26-0.72 0.52-1.45 0.79-2.19 1.65-4.51 3.48-8.91 5.39-13.3 0.67-1.67 1.34-3.34 2-5 11.9-2.34 23.6-2.28 35.6-2.21z" fill="#0D77C7"/>
<path transform="translate(1045 913)" d="m0 0h2.82c0.98-0 1.96 0 2.97 0.01 0.97-0.01 1.94-0.01 2.94-0.01h2.83 2.6c2.25 0.13 2.25 0.13 5.25 1.13 1.36 2.14 2.54 4.2 3.69 6.44 0.32 0.6 0.64 1.2 0.97 1.81 2.34 4.46 2.34 4.46 2.34 6.75h2c0.28 0.5 0.55 0.99 0.83 1.5 6.72 12.2 6.72 12.2 13.8 24.2 2.12 3.56 4.1 7.19 6.05 10.8 1.01 1.86 2.06 3.69 3.14 5.52 1.45 3.59 1.64 6.81 1.78 10.7 0.48 2.69 1.32 3.57 3.4 5.27-1.28 2.88-2.53 5.01-5 7-2.18 0.69-2.18 0.69-4 1v3c-1.98-0.49-1.98-0.49-4-1-0.2 0.95-0.41 1.9-0.62 2.88-1.38 3.12-1.38 3.12-4.38 4.31-1.48 0.4-1.48 0.4-3 0.81l-2 3 1 3h-9v-3h-2-7c-0.49 1.49-0.49 1.49-1 3-2.56 1.19-2.56 1.19-5 2v-2c-0.49 0.33-0.99 0.66-1.5 1-3.59 1.44-6.64 1.13-10.5 1l-1 2c-1.05-0.16-2.1-0.33-3.18-0.5-3.02-0.39-5.79-0.59-8.82-0.5v2h-8l-1 2h4l1-2c1.5 1.38 1.5 1.38 3 3v2c-1.41 0.37-2.83 0.72-4.25 1.07-0.78 0.19-1.57 0.39-2.39 0.59-2.46 0.36-4.01 0.11-6.36-0.66l1-1c-5.02-1-8.26-1.03-13 1l-1 1c-2.35 0.08-4.7 0.09-7.06 0.07-1.93-0.02-1.93-0.02-3.91-0.03-1-0.01-2-0.03-3.03-0.04v2h-2c0.5 0.99 0.5 0.99 1 2 1.18-0.28 1.18-0.28 2.38-0.56 2.62-0.44 2.62-0.44 4.62 0.56-6.27 4.37-8.69 3.95-16 3v-2c-0.99-0.33-1.98-0.66-3-1 0.5-0.99 0.5-0.99 1-2-0.99-0.33-1.98-0.66-3-1l-3-3h-2c-0.06-0.77-0.12-1.54-0.18-2.33-0.08-1.01-0.17-2.01-0.25-3.04-0.08-1-0.17-2-0.25-3.03-0.17-2.58-0.17-2.58-1.32-4.6 0.5-0.99 0.5-0.99 1-2 0.23-1.53 0.41-3.08 0.57-4.62 0.08-0.82 0.16-1.64 0.25-2.48 0.06-0.63 0.12-1.25 0.18-1.9h-2c0.35-0.95 0.71-1.89 1.07-2.87 1.28-3 1.28-3-0.07-5.13l-1-2c4.16-9.84 11.2-19 17.4-27.6 1.5-2.17 2.89-4.39 4.25-6.66 2.11-3.43 4.33-6.05 7.37-8.69h2c0.25-0.72 0.5-1.44 0.75-2.18 2.58-5.8 6.92-9.45 11.8-13.2 0.61-0.49 1.23-0.97 1.87-1.46 7.37-5.63 15-9.94 23.9-12.6 5.18-1.68 5.18-1.68 7.27-1.68z" fill="#0F86D0"/>
<path transform="translate(751 1047)" d="m0 0c0.9 0.1 1.8 0.2 2.73 0.31 0.69 0.08 1.37 0.17 2.08 0.25 1.13 4.75 1.13 4.75 0 7l5-4c0.5 1.49 0.5 1.49 1 3l2-1 2 6h4l-1 6h-3l2 2c-1.48 0.5-1.48 0.5-3 1 0.24 0.68 0.48 1.35 0.73 2.05 0.3 0.89 0.59 1.78 0.9 2.7 0.3 0.88 0.6 1.77 0.91 2.67 0.54 2.99 0.09 4.08-1.54 6.58h2v2l-1 1 1 2h-2c0.5 0.62 0.99 1.24 1.5 1.88 1.5 2.12 1.5 2.12 1.5 4.12-4.45 0.5-4.45 0.5-9 1 2 1 3.83 1.5 6 2-0.49 0.99-0.49 0.99-1 2l-5-1v2l2 1-5 2 1 3 5 1v6c1.49 0.5 1.49 0.5 3 1h-2c-0.22 2.13-0.22 2.13 1.5 3.63 0.5 0.45 0.99 0.91 1.5 1.37-0.68 0.93-1.36 1.86-2.06 2.82-0.64 1.05-1.28 2.1-1.94 3.18l1 3 4-1v5c1.98 0.33 3.96 0.66 6 1l-1 2 2 2v1l2 1c-0.16 0.6-0.33 1.2-0.5 1.82-0.64 2.79-0.8 4.58 0.5 7.18l2-1c0.99 3.47 0.99 3.47 2 7h-2l-1 5 2 1-5 2c1.49 0.5 1.49 0.5 3 1-0.49 1.98-0.49 1.98-1 4h-10v2l-1 1 2 2h-6v2h6l-2 2h-3l-1 2c-0.54 0.01-1.09 0.02-1.65 0.03-5.74 0.11-11.5 0.23-17.2 0.34-2.14 0.05-4.27 0.09-6.41 0.13-16.2 0.3-16.2 0.3-32.4 1.4-0.76 0.03-1.53 0.07-2.32 0.1l-1-1c-1.34-0.23-2.7-0.41-4.06-0.56-1.3-0.14-2.6-0.29-3.94-0.44v-1h6l1-5h4v-2h-3l-1-4c2 0 2 0 3.63 1.5 0.45 0.5 0.91 0.99 1.37 1.5-0.49-3.46-0.49-3.46-1-7 4.75-1 4.75-1 7-1-0.49-3.46-0.49-3.46-1-7 2.48-0.49 2.48-0.49 5-1 0.17-1.26 0.33-2.51 0.5-3.81 0.1-0.71 0.19-1.42 0.28-2.14 0.28-2.2 0.28-2.2 0.22-5.05h-2l-2 4c-1-2-1-2-1-5-0.74-2.15-0.74-2.15-2-4-0.99-0.33-1.98-0.66-3-1v-4h2v-2c-0.99-0.49-0.99-0.49-2-1l-1 2h-3l-1-6c0.99-0.49 0.99-0.49 2-1v-6l2-1-3-3c1.98-0.49 1.98-0.49 4-1v-12c-0.99-0.49-0.99-0.49-2-1-0.49 0.99-0.49 0.99-1 2-1.76-3.09-2-4.23-2-8 1.49 0.5 1.49 0.5 3 1l1 3v-3l1-3c-0.99-0.33-1.98-0.66-3-1 0.66-0.58 1.32-1.15 2-1.75 2.45-2.24 2.45-2.24 2-6.25v-2h3v-2l-4-2 1-2-2-1v-5h-5v-2c-1.98-0.33-3.96-0.66-6-1v-2l-2-1c-0.62-2.56-0.62-2.56-1-5-0.95 0.04-1.9 0.07-2.88 0.11-1.26 0.03-2.51 0.05-3.81 0.08-1.24 0.03-2.48 0.07-3.76 0.11-3.76-0.32-5.58-1.02-8.55-3.3l-1-2c2.66-1.33 4.71-1.14 7.69-1.17 1.78-0.02 1.78-0.02 3.61-0.04 1.29-0.01 2.59-0.02 3.93-0.03 1.34-0.02 2.68-0.04 4.02-0.05 5.71-0.07 11.4-0.13 17.1-0.18 3.49-0.04 6.98-0.08 10.5-0.12 1.97-0.03 3.93-0.04 5.89-0.05 9.17-0.13 18.7-3.95 27.5-2.92z" fill="#0F87D0"/>
<path transform="translate(1595,8)" d="m0 0c0.1 0.64 0.21 1.28 0.31 1.94 0.23 0.68 0.46 1.36 0.69 2.06 0.99 0.33 1.98 0.66 3 1h-3l1 16 3-2c0.01 45.9 0.01 91.7 0.02 138v2.72c0.01 96.1 0.02 192 0.02 288v6.4c0.01 44.8 0.01 89.6 0.01 134v67.5c0 3.4 0.01 6.79 0.01 10.2 0 52.3 0 105 0.01 157v3.41c0 18.1 0 36.3 0.01 54.4 0 52.2 0.01 104 0.01 157v3.26 70.7 28.4 3.15c0.01 33.5 0.01 66.9 0.02 100 0 33.7 0.01 67.4 0 101v13.9 2.76c0 14.5 0.01 28.9 0.01 43.4v42.6c0 8.35 0 16.7 0.01 25 0 6.17 0 12.3-0.01 18.5 0 2.5 0 5 0.01 7.5 0 3.36 0 6.72-0.01 10.1 0.01 0.99 0.01 1.98 0.01 2.99 0 0.89 0 1.77-0.01 2.68v2.33c-0.12 1.74-0.12 1.74-1.12 2.74-0.24 2.86-0.42 5.7-0.56 8.56-0.05 0.81-0.09 1.62-0.13 2.45-0.11 1.99-0.21 3.99-0.31 5.99h-1c-0.49-8.91-0.49-8.91-1-18h-1c-0.04-46.4-0.07-92.8-0.11-139v-2.75c-0.07-97.2-0.15-194-0.22-292v-6.47c-0.04-45.3-0.07-90.6-0.1-136-0.02-22.8-0.03-45.5-0.05-68.3 0-3.44 0-6.87-0.01-10.3-0.04-52.9-0.07-106-0.12-159v-3.45c-0.01-18.3-0.03-36.7-0.04-55-0.04-52.8-0.08-106-0.12-158v-3.29c-0.02-23.8-0.04-47.6-0.05-71.5-0.01-9.59-0.02-19.2-0.02-28.8v-3.18c-0.03-33.8-0.05-67.7-0.08-102-0.03-34.1-0.06-68.1-0.08-102 0-4.7 0-9.4-0.01-14.1v-2.79l-0.03-43.9c-0.02-14.4-0.03-28.7-0.03-43.1-0.01-8.44-0.02-16.9-0.03-25.3 0-6.24-0.01-12.5-0.01-18.7v-7.58c-0.01-3.4-0.01-6.8-0.01-10.2 0-1 0-1.99-0.01-3.01 0-0.9 0.01-1.8 0.01-2.72v-2.35c0.12-1.89 0.12-1.89 1.12-3.89z" fill="#FDFFFF"/>
<path transform="translate(1098,976)" d="m0 0h2c0.29 0.62 0.58 1.23 0.88 1.87 2.55 5.27 5.31 10.1 8.69 14.9 1.71 2.63 3.03 5.39 4.43 8.2 1.02 1.69 2.03 3.37 3.06 5.05 3.62 5.98 5.94 10.8 5.94 18h2l1 3 2 2h-2c-0.27 0.74-0.54 1.48-0.81 2.25-1.13 2.62-2.4 4.55-4.19 6.75l-5-1 2 4c-3.75 2-3.75 2-6 2-3.82 0.64-7.35 1.73-11 3-5.78 2-5.78 2-8 2-0.27 0.64-0.54 1.28-0.81 1.94-1.19 2.06-1.19 2.06-4.19 3.06v-4c-0.99-0.33-1.98-0.66-3-1v2h-2c-0.49 1.48-0.49 1.48-1 3-1.98-0.49-1.98-0.49-4-1v-2l-2-1c-0.19 0.62-0.37 1.24-0.56 1.88-2.13 3.14-4.93 3.37-8.44 4.12-0.79 0.2-1.58 0.39-2.39 0.6-6.33 1.54-6.33 1.54-8.61 0.4l1-2h-2c-0.27 0.62-0.54 1.24-0.81 1.88-1.19 2.12-1.19 2.12-4.19 4.12-2.69 0.12-2.69 0.12-5 0 0-2 0-2 1-3h-2v3l-4 1-1-3c-1.48 0.49-1.48 0.49-3 1l2 2c-3 1-3 1-5 1-1.15 0.19-2.31 0.37-3.5 0.56-3.5 0.44-3.5 0.44-5.5-0.56-3.06 0.25-3.06 0.25-6 1l-1 2c-2.65 0.59-5.29 0.74-8 1l2 2-3 3c-0.99-0.49-0.99-0.49-2-1l-1 1c-3.32 1.18-5.62 0.8-9 0h-2v-2l-5-1c0.5-1.48 0.5-1.48 1-3-0.99-0.49-0.99-0.49-2-1l-1-3c-1.49-0.49-1.49-0.49-3-1l1-2c-1.49 0.49-1.49 0.49-3 1-6.03-1.54-6.03-1.54-8.06-4.61-0.64-1.46-1.23-2.93-1.79-4.42-1.47-3.81-3.21-7.47-4.96-11.2-0.35-0.73-0.69-1.46-1.04-2.21-1.68-3.57-3.4-7.12-5.19-10.6-0.32-0.62-0.64-1.25-0.97-1.9-0.87-1.7-1.76-3.41-2.64-5.11-1.24-2.7-1.92-5.02-2.35-7.95h2c0.04-0.78 0.08-1.57 0.12-2.38 1.05-4.34 3.02-7.38 5.38-11.1 1.86-3.07 3.2-6.15 4.5-9.48l4 1c-0.55 3.37-1.05 5.08-3 8h2c0.03 1.44 0.05 2.87 0.06 4.31 0.01 0.8 0.03 1.6 0.04 2.43-0.1 2.26-0.1 2.26-1.1 5.26l1 3c0.41 2.66 0.69 5.33 1 8l7 2-2 2h3l-1 3c5.77 2.89 5.77 2.89 12 2h2l2-2c-2.97 0.49-2.97 0.49-6 1v-3h2v-2c3.46-0.69 6.67-1.03 10.2-0.94 3.88 0.28 3.88 0.28 6.81-2.06 4.31-1.05 7.67-0.93 12 0v2h7c0.49-0.99 0.49-0.99 1-2h1l-1-3c-1.98 0.66-3.96 1.32-6 2l2-4c5.75-0.12 5.75-0.12 8 1v-2c3.73-0.88 7.17-1.09 11-1l1 2 1-3c0.89 0.02 0.89 0.02 1.79 0.04 5.43 0.06 10-0.31 15.2-2.04 0.49-0.99 0.49-0.99 1-2 2.72-0.63 2.72-0.63 6.06-1.12 1.11-0.17 2.21-0.34 3.35-0.51 1.28-0.18 1.28-0.18 2.59-0.37l-1 2h-2c2.76 2.76 5.21 2.58 9 3v-2l-2-1c5.14-5.57 5.14-5.57 9-6l-1-2c2.17-2.5 3.73-3.44 7-4l-2-2c3.75-1.12 3.75-1.12 6 0l1-3 3-3v-2l-3-2c-0.41-2.71-0.13-5.24 0-8z" fill="#008FD4"/>
<path transform="translate(1045 913)" d="m0 0h2.82c0.98-0 1.96 0 2.97 0.01 0.97-0.01 1.94-0.01 2.94-0.01h2.83 2.6c2.25 0.13 2.25 0.13 5.25 1.13 1.36 2.14 2.54 4.2 3.69 6.44 0.32 0.6 0.64 1.2 0.97 1.81 2.34 4.46 2.34 4.46 2.34 6.75h2c6.61 10.2 6.61 10.2 5.88 16.2-0.29 1.26-0.58 2.52-0.88 3.81 1.49 0.99 1.49 0.99 3 2-1.25 2.51-2.5 2.87-5 4h2l-1 3c-0.9 0.13-1.81 0.25-2.75 0.38-2.84 0.54-4.77 1.2-7.25 2.62v3l4 2c-3.13 1.86-5.37 2.2-9 2v2c-1.19 0.13-2.39 0.25-3.62 0.38-3.65 0.45-6.92 1.33-10.4 2.62v-2h-2v2c-0.66 0.05-1.32 0.1-2.01 0.15-7.56 0.34-7.56 0.34-14 3.85-2.67 0.14-5.32 0.05-8 0 6.03 0.95 11 1.37 17 0l1 2c-0.78 0.21-1.56 0.41-2.37 0.62-1.01 0.27-2.02 0.54-3.06 0.82-1.01 0.27-2.02 0.53-3.06 0.81-2.42 0.51-2.42 0.51-3.51 1.75-0.88-0.02-1.77-0.04-2.68-0.06-3.5 0.07-6.07 0.82-9.32 2.06v-2c-3.44-2.16-5.12-1.85-9-1-1.67-0.32-3.33-0.65-5-1-1.48 0.5-1.48 0.5-3 1-0.99-0.33-1.98-0.66-3-1l-1 3v-4h-6c0-2 0-2 1.5-3.62 0.75-0.68 0.75-0.68 1.5-1.38l-2-1 1-4-3-2 1-5h2c-0.35-0.72-0.7-1.44-1.06-2.18-1.27-3.83-0.57-6.13 0.81-9.82 1.73-2.76 3.84-4.82 6.25-7h2c0.38-1.08 0.38-1.08 0.75-2.18 2.58-5.8 6.92-9.45 11.8-13.2 0.61-0.49 1.23-0.97 1.87-1.46 7.37-5.63 15-9.94 23.9-12.6 5.18-1.68 5.18-1.68 7.27-1.68z" fill="#0D77C7"/>
<path transform="translate(972,788)" d="m0 0c2.97 0.5 2.97 0.5 6 1v2c0.91 0.29 1.82 0.58 2.75 0.88 3.74 1.29 6.44 2.31 9.25 5.12 0.99 0.33 1.98 0.66 3 1 0.67 1.33 1.33 2.67 2 4 0.99 0.33 1.98 0.66 3 1l1 2c0.64 0.27 1.28 0.54 1.94 0.81 2.74 1.58 3.13 3.24 4.06 6.19l3-2c0.27 1.13 0.54 2.27 0.81 3.44 0.59 1.76 0.59 1.76 1.19 3.56 0.99 0.33 1.98 0.66 3 1 0.69 1.99 1.36 3.99 2 6 1.42 1.75 1.42 1.75 3 3l2 2-1 3c1.37 1.54 1.37 1.54 3 3h2c0.06 1.09 0.12 2.19 0.19 3.31 0.42 3.83 0.42 3.83 3.37 5.63 1.21 0.52 1.21 0.52 2.44 1.06l-1 5h2c0.49-0.99 0.49-0.99 1-2v4c0.99 0.5 0.99 0.5 2 1v2c1.89 1.96 1.89 1.96 3.69 3.38 0.43 0.53 0.86 1.07 1.31 1.62-0.31 2.19-0.31 2.19-1 4 1.98 0.5 1.98 0.5 4 1v3l2 1v5c1.48 0.5 1.48 0.5 3 1 0.37 1.32 0.71 2.66 1 4l2 1v4h2c0.29 0.8 0.58 1.61 0.88 2.44 0.85 2.69 0.85 2.69 3.12 3.56v4h2c0.18 0.71 0.36 1.42 0.55 2.15 0.25 0.92 0.5 1.84 0.76 2.79 0.25 0.91 0.49 1.83 0.74 2.77 0.31 0.76 0.63 1.51 0.95 2.29 1.48 0.5 1.48 0.5 3 1 1.75 3.57 3.22 7.09 4 11h2c3 5.75 3 5.75 3 8h3l1 8c0.99-0.33 1.98-0.66 3-1 0.45 1.07 0.91 2.14 1.38 3.25 0.85 1.99 1.71 3.94 2.68 5.87 0.94 1.88 0.94 1.88 1.82 4.5 1.31 2.78 2.29 3.34 5.12 4.38l-1 3c0.95 1.7 1.95 3.36 3 5v2h3c0.17 0.84 0.17 0.84 0.34 1.7 0.75 2.62 1.87 4.69 3.22 7.05 0.46 0.8 0.91 1.6 1.38 2.42 0.35 0.61 0.7 1.21 1.06 1.83h2v6c0.96 0.34 0.96 0.34 1.94 0.69 2.06 1.31 2.06 1.31 2.68 3.81 0.13 0.83 0.25 1.65 0.38 2.5l2 2c0.67 1.33 1.33 2.67 2 4l2 2h1c0.19 0.63 0.39 1.25 0.59 1.9 0.26 0.82 0.52 1.63 0.79 2.48 0.25 0.81 0.51 1.62 0.77 2.46 1.07 2.72 2.24 3.85 4.85 5.16 0.56 1.75 0.56 1.75 1 4 0.19 0.91 0.37 1.82 0.56 2.75 0.22 1.11 0.22 1.11 0.44 2.25 0.99-0.33 1.98-0.66 3-1l2 8h2c0.43 1.7 0.43 1.7 0.88 3.44 0.37 1.17 0.74 2.35 1.12 3.56l2 1c0.93 1.66 1.8 3.35 2.62 5.06 0.67 1.38 0.67 1.38 1.36 2.79 0.5 1.06 0.5 1.06 1.02 2.15h1v5h2c0.27 0.57 0.53 1.13 0.8 1.71 0.36 0.74 0.71 1.47 1.08 2.23 0.52 1.09 0.52 1.09 1.05 2.21 0.94 2.01 0.94 2.01 3.07 2.85 0.84 1.96 1.47 3.96 2.12 5.99 0.76 2.09 0.76 2.09 2.48 3.52 1.4 1.49 1.4 1.49 1.4 5.49l4 1c0.99 3.47 0.99 3.47 2 7h2c0.11 0.64 0.22 1.28 0.33 1.93 0.16 0.83 0.32 1.66 0.48 2.51 0.15 0.82 0.3 1.64 0.46 2.49 0.24 0.69 0.48 1.37 0.73 2.07 0.99 0.33 1.98 0.66 3 1 1.03 2.32 2.04 4.65 3 7l2 1v2h2c0.15 1.36 0.15 1.36 0.31 2.75 0.7 3.31 1.59 4.7 3.69 7.25v2h2c1.98 5.44 1.98 5.44 4 11h2v3h2c0.99 3.47 0.99 3.47 2 7l2-1c0.18 0.63 0.36 1.25 0.55 1.9 0.38 1.22 0.38 1.22 0.76 2.48 0.25 0.81 0.49 1.62 0.74 2.46 0.86 2.49 0.86 2.49 3.95 4.16 0.12 0.93 0.25 1.86 0.38 2.81 0.79 4.08 2.66 5.38 5.62 8.19 0.62 2.12 0.62 2.12 1 4 0.47 0.45 0.95 0.89 1.43 1.36 1.82 1.91 2.29 3.31 3.01 5.83 1.2 3.89 2.76 7.34 4.64 11 1.25 2.53 2.11 5.15 2.92 7.86h-3c-1.76 0.35-3.53 0.7-5.29 1.06-9.77 1.96-19.2 2.28-29.1 2.11-4.59-0.08-9.18-0.1-13.8-0.13-1.38-0.01-1.38-0.01-2.78-0.02-9.81-0.06-19.6 0.24-29.4 0.63-6.39 0.24-12.8 0.41-19.2 0.44-1.29 0.01-2.57 0.02-3.9 0.03-3.29-0.11-6.34-0.55-9.58-1.12-1.34 0.31-2.67 0.64-4 1-11.7-0.06-11.7-0.06-16.8-2.5-2.98-1.37-4.36-1.69-7.5-1.88-4.93-0.38-8.79-2.26-13.2-4.46-2.56-1.15-4.84-1.63-7.58-2.16-2.1-0.94-2.1-0.94-4.06-2-2.09-1.12-3.81-1.97-6.12-2.5-0.6-0.16-1.2-0.33-1.82-0.5l-1-2c-2.02-1.13-2.02-1.13-4-2v-2c-0.58-0.06-1.15-0.12-1.75-0.19-3.14-1.13-4.27-3.19-6.25-5.81l-3-2c-5-5.18-5-5.18-5-8h-3c-4-6.75-4-6.75-4-9-0.96-0.37-0.96-0.37-1.94-0.75-2.06-1.25-2.06-1.25-2.62-3.19-0.15-0.68-0.29-1.36-0.44-2.06-0.5-0.45-0.99-0.91-1.5-1.38-2.14-2.31-2.16-4.56-2.5-7.62h2c1.09 1.48 1.09 1.48 2.29 3.55 0.44 0.76 0.88 1.51 1.34 2.29 0.47 0.82 0.94 1.63 1.43 2.47 8.97 15 19.5 27.8 35.9 34.7 1.07 0.5 1.07 0.5 2.17 1.01 33.8 15.6 75.2 11.3 111 10.6 1.12-0.02 2.23-0.04 3.37-0.06 3.14-0.06 6.28-0.13 9.42-0.21 0.95-0.02 1.89-0.04 2.86-0.06 0.86-0.02 1.72-0.05 2.61-0.07 0.75-0.02 1.5-0.04 2.28-0.06 1.94-0.06 1.94-0.06 3.84-1.16 7.58-1.11 14.4-1.12 21.9 0.62 2.18 0.61 2.18 0.61 4.14-0.62-0.83-0.72-1.65-1.44-2.5-2.19-2.88-3.23-2.6-3.76-2.5-7.81-1.31-1.36-2.65-2.69-4-4-0.29-0.89-0.59-1.78-0.89-2.69-1.25-3.73-3.05-6.95-5.05-10.3-2.51-4.26-4.89-8.55-7.06-13-0.56-1.07-1.11-2.14-1.69-3.25-1.31-2.75-1.31-2.75-1.31-4.75h-2c-0.49-1.03-0.99-2.06-1.5-3.12-3.67-7.36-7.86-14.5-12.1-21.5-1.29-2.16-2.51-4.33-3.71-6.53-1.75-3.16-3.56-6.28-5.44-9.37-3.1-5.12-6.01-10.3-8.92-15.5-2.13-3.8-4.31-7.56-6.58-11.3-1.85-3.04-3.51-6.1-5.06-9.31-2.39-4.88-5.15-9.5-7.96-14.1-3.21-5.29-6.33-10.6-9.42-16-2.83-4.92-5.67-9.84-8.62-14.7-2.01-3.3-3.87-6.66-5.69-10.1-2.33-4.35-4.91-8.38-7.8-12.4-1.36-2.35-1.8-4.4-2.2-7.07h-2c-1.42-2.5-2.84-5-4.25-7.5-0.4-0.7-0.79-1.39-1.2-2.11-1.91-3.38-3.75-6.76-5.46-10.2-3.02-6.14-6.57-12-10-17.9-0.52-0.9-1.05-1.81-1.59-2.74-0.47-0.82-0.95-1.64-1.44-2.48-1.04-2.03-1.04-2.03-1.04-4.03h-2c-0.59-1.07-1.18-2.15-1.79-3.25-0.8-1.44-1.6-2.88-2.4-4.31-0.38-0.71-0.77-1.41-1.17-2.14-1.93-3.46-3.91-6.76-6.26-9.96-2.15-2.93-3.77-5.91-5.32-9.22-1.81-3.74-3.68-7.21-6.06-10.6-2.24-3.23-4.04-6.47-5.75-10-3.27-6.74-7.08-13.1-10.9-19.6-2.21-3.7-4.32-7.43-6.38-11.2-0.87-1.57-1.82-3.09-2.77-4.61-1.19-2.12-1.19-2.12-1.19-5.12h-2c-0.67-1.29-1.34-2.58-2-3.88-0.37-0.71-0.74-1.43-1.12-2.17-0.88-1.95-0.88-1.95-0.88-3.95h-2c-1.26-1.65-1.26-1.65-2.69-3.94-4.39-6.79-8.74-13.2-15.3-18.1l-5-5c-3.69-3.18-7.5-5.49-11.8-7.75-1.16-0.61-2.33-1.23-3.52-1.86-1.32-0.69-1.32-0.69-2.67-1.39v-3z" fill="#F9FEFE"/>
<path transform="translate(955,1012)" d="m0 0c4.25 8.5 4.25 8.5 5.55 11.1 1.03 2.04 2.08 4.07 3.15 6.08 0.55 1.07 1.1 2.13 1.68 3.23 0.52 0.99 1.04 1.97 1.58 2.99 1.04 2.57 1.04 2.57 0.04 5.57l-3-2c-0.99 1.48-0.99 1.48-2 3l-3-3v2c-2.33 1.16-3.85 1.2-6.44 1.25-0.78 0.03-1.56 0.05-2.37 0.08-2.67-0.4-3.51-1.28-5.19-3.33-0.99 0.33-1.98 0.66-3 1-0.59 1.95-0.59 1.95-1 4l-2 2c-0.64 2.07-0.64 2.07-1 4h-2l-2 5h-2c-0.08 0.68-0.16 1.36-0.25 2.06-0.95 3.71-2.76 6.71-4.75 9.94-2.27 3.68-4.2 7.41-6.04 11.3-0.96 1.67-0.96 1.67-2.96 2.67-0.31 0.95-0.62 1.9-0.94 2.88-1.06 3.12-1.06 3.12-2.44 4.48-2.09 2.11-3.28 4.39-4.68 7.02-0.51 0.93-1.02 1.87-1.54 2.83-1.28 2.56-2.38 5.12-3.4 7.79h-2l-1 5h-2c-0.27 0.91-0.54 1.82-0.81 2.75-1.19 3.25-1.19 3.25-2.75 5.31-1.63 1.9-1.63 1.9-1.94 4.56-0.5 2.38-0.5 2.38-3.5 4.38-1.06 1.63-2.04 3.31-3 5-0.82 1.38-1.66 2.75-2.5 4.12-0.6 1-0.6 1-1.22 2.01-1.28 1.87-2.68 3.28-4.28 4.87-1.57 2.09-3.09 4.22-4.6 6.36-0.46 0.54-0.92 1.08-1.4 1.64h-2c-0.08 0.62-0.16 1.24-0.25 1.88-0.75 2.12-0.75 2.12-2.5 3.06-0.74 0.35-1.49 0.7-2.25 1.06-1.71 1.62-3.37 3.29-5 5l-4 4-2-1c-0.31 0.95-0.62 1.9-0.94 2.88-1.06 3.12-1.06 3.12-2.06 5.12-1.71 0.78-1.71 0.78-3.81 1.5-2.32 0.81-4.39 1.61-6.57 2.75-0.53 0.25-1.07 0.49-1.62 0.75l-2-1v2c-1.58 0.22-1.58 0.22-3.19 0.44-2.21 0.32-4.43 0.68-6.62 1.12-4.59 0.92-9.51 0.44-14.2 0.44v-2c-0.8 0.16-1.61 0.33-2.44 0.5-3.33 0.47-6.48 0.51-9.83 0.47-3.28 0.04-6.52 0.28-9.79 0.53-11.7 0.82-23.3 0.88-34.9-0.5l1-3c1.71-0.02 1.71-0.02 3.46-0.04 45.7 0.69 45.7 0.69 88.5-13 0.99-0.33 1.98-0.66 3-1 1.01-0.99 2.01-1.99 3-3 2.51-1.78 5.06-3.48 7.62-5.18 2.31-1.77 3.67-3.51 5.38-5.82h2c0.26-0.55 0.52-1.1 0.78-1.67 1.4-2.67 3.01-5.1 4.72-7.58 0.61-0.89 1.22-1.78 1.84-2.7 0.55-0.68 1.1-1.35 1.66-2.05h2c0.25-0.87 0.5-1.73 0.75-2.62 1.33-3.59 3-6.26 5.19-9.38 2.71-3.89 5-7.73 7.06-12 0.82-1.48 1.66-2.96 2.5-4.44 2.12-3.77 3.88-7.55 5.5-11.6h2c0.58-1.15 1.15-2.31 1.75-3.5 2.08-4.17 4.17-8.33 6.25-12.5h2c0.19-0.95 0.37-1.9 0.56-2.88 1.28-4.53 3.95-7.88 6.71-11.6 1.9-2.73 3.3-5.48 4.7-8.48 1.2-2.32 2.61-4.41 4.09-6.56 2.54-3.7 4.34-7.26 5.94-11.4h2c0.37-1.55 0.37-1.55 0.75-3.12 0.89-3.1 2.14-5.38 4.04-8 2.29-3.55 3.96-7.45 5.75-11.3 1.46-2.61 1.46-2.61 4.46-4.61z" fill="#FBFFFF"/>
<path transform="translate(681,887)" d="m0 0 4 1-5 9h-2c-0.1 0.68-0.21 1.36-0.31 2.06-0.84 3.57-2.18 6.6-3.69 9.94h-2v2h-2v3h-2v4h-2c-0.27 0.7-0.54 1.4-0.81 2.12-1.82 4.41-3.92 8.5-6.5 12.5-3.34 5.23-5.99 10.8-8.69 16.4h-2v4c-1.44 1.56-1.44 1.56-3 3-0.5 1.49-0.5 1.49-1 3h-2v4c-0.97 1.03-1.97 2.03-3 3-0.95 1.7-1.84 3.43-2.69 5.19-0.43 0.9-0.87 1.8-1.32 2.73-0.49 1.03-0.49 1.03-0.99 2.08h-2c-0.14 0.78-0.14 0.78-0.28 1.58-0.98 3.3-2.62 6.18-4.28 9.17-0.33 0.6-0.66 1.2-1 1.82-0.81 1.48-1.62 2.96-2.44 4.43h-2l1 3c-1.28 1.71-2.63 3.37-4 5-1.42 2.29-2.7 4.64-4 7h-2l1 6h-3c-1.65 2.27-1.65 2.27-3 5-0.53 0.99-0.53 0.99-1.06 2-1.08 2.3-2.02 4.63-2.94 7h-2c-0.12 0.58-0.25 1.15-0.38 1.75-0.63 2.29-1.56 4.13-2.62 6.25-0.31 1.03-0.62 2.06-0.94 3.12-1.06 2.88-1.06 2.88-4.06 4.88v2c17 0.95 34 1.49 51 2v1c32.2 0.49 32.2 0.49 65 1v-2c0.99 0.33 1.98 0.66 3 1l1-1c0.93 0.16 1.86 0.33 2.81 0.5 3.12 0.49 4.26 0.24 7.19-0.5 1.52-0.02 3.04 0 4.56 0.06 5.61 0.07 11-0.71 16.4-2.06l1-1c1.67-0.04 3.33-0.04 5 0-9.9 9.9-34 6.33-46.9 6.56-1.12 0.02-2.23 0.04-3.39 0.07-22.5 0.4-45 0.48-67.5 0.49-2.68 0-5.36 0.01-8.04 0.01-4.26 0.01-8.52 0.01-12.8 0-1.59 0-3.17 0-4.75 0.01-2.18 0-4.36-0.01-6.54-0.01h-3.72c-3.21-0.12-6.21-0.52-9.36-1.13 0.26-5.88 2.26-9.53 5.39-14.5 1.45-2.29 2.77-4.6 4.05-6.98 2.41-4.39 5.09-8.59 7.8-12.8 4.42-6.91 8.48-14 12.4-21.2 2.34-4.31 4.7-8.54 7.44-12.6 1.97-2.85 1.97-2.85 3.32-5.75 1.38-2.71 2.85-5.06 4.56-7.57 1.85-2.72 3.52-5.39 4.94-8.37 2.36-4.98 5.37-9.56 8.32-14.2 1.84-2.94 1.84-2.94 2.92-5.88 0.88-2.17 0.88-2.17 2.88-3.17 1.04-1.8 1.04-1.8 2.06-4.06 2.31-4.77 4.83-9.39 7.44-14 0.58-1.04 0.58-1.04 1.18-2.09 0.76-1.34 1.52-2.68 2.28-4.01 2.04-3.6 4.04-7.22 6.04-10.8h2c0.37-1.58 0.37-1.58 0.75-3.19 1.03-3.65 2.76-5.93 5.25-8.81 0.71-1.31 1.39-2.64 2-4z" fill="#FBFFFF"/>
<path transform="translate(777,418)" d="m0 0h4c3 5.75 3 5.75 3 8h2l2 7 4 1 2 7 2-1c0.06 1.01 0.12 2.02 0.19 3.06 0.53 3.92 2.2 6.12 4.61 9.17 1.28 1.89 1.8 3.43 2.32 5.65 0.29 1.03 0.58 2.06 0.88 3.12 1.49 0.5 1.49 0.5 3 1 1.19 3.56 1.19 3.56 2 7h3c0.14 0.78 0.29 1.57 0.44 2.38 0.44 2.58 0.44 2.58 1.56 4.62l2-1c0.17 0.57 0.34 1.14 0.52 1.72 1.63 5.22 3.63 9.62 6.48 14.3l1 2 2-1c0.18 0.85 0.36 1.71 0.55 2.59 0.38 1.66 0.38 1.66 0.76 3.35 0.25 1.1 0.49 2.2 0.74 3.34 0.31 0.9 0.63 1.79 0.95 2.72 0.99 0.33 1.98 0.66 3 1 1.28 2.07 1.28 2.07 2.5 4.69 0.43 0.9 0.86 1.8 1.3 2.72 0.59 1.28 0.59 1.28 1.2 2.59 1.7 4.28 1.7 4.28 5 7v2l2 1 1 3c1.49 0.5 1.49 0.5 3 1 0.73 1.85 0.73 1.85 1.19 4.06 0.16 0.74 0.31 1.47 0.48 2.23 0.16 0.84 0.16 0.84 0.33 1.71l2-1c0.99 3.3 1.98 6.6 3 10h3v6c1.93 1.15 1.93 1.15 4 1v7h2c0.87 1.89 1.72 3.79 2.56 5.69 0.48 1.05 0.95 2.11 1.44 3.2 1.08 3.36 1.18 4.82 0 8.11-1.41 2.02-1.41 2.02-3.06 3.81-0.55 0.61-1.1 1.21-1.66 1.83-0.42 0.45-0.85 0.9-1.28 1.36l2 1c-0.99 0.33-1.98 0.66-3 1-1.02 1.87-1.02 1.87-1.69 4.06-0.25 0.74-0.5 1.47-0.76 2.23-0.18 0.56-0.36 1.13-0.55 1.71h-2v2h-2c-0.18 0.64-0.36 1.28-0.55 1.93-0.25 0.83-0.5 1.66-0.76 2.51-0.25 0.82-0.49 1.64-0.74 2.49-0.31 0.69-0.63 1.37-0.95 2.07-0.99 0.33-1.98 0.66-3 1v3l-2-1c0.34-6.38 3.71-11 7-16.2 1.1-1.8 2.21-3.59 3.31-5.39 0.49-0.79 0.98-1.58 1.49-2.39 1.22-1.94 1.22-1.94 2.2-3.97h2c0.22-1.58 0.43-3.17 0.62-4.75 0.18-1.32 0.18-1.32 0.36-2.67 0.02-2.85-0.63-4.13-1.98-6.58v-3h-2c-0.38-0.79-0.76-1.58-1.14-2.39-2.74-5.48-5.97-10.7-9.1-16-0.72-1.24-0.72-1.24-1.46-2.5-0.66-1.12-0.66-1.12-1.34-2.26-0.96-1.88-0.96-1.88-0.96-3.88h-2c-0.56-1.13-1.11-2.27-1.69-3.44-4.41-8.81-9.45-17.2-14.6-25.6-2.73-4.58-2.73-4.58-2.73-7.92h-2c-1.22-1.61-1.22-1.61-2.5-3.75-0.63-1.04-0.63-1.04-1.28-2.11-3.22-5.65-3.22-5.65-3.22-9.14h-2c-0.53-1-1.06-2-1.61-3.04-0.71-1.34-1.43-2.68-2.14-4.02-0.35-0.66-0.7-1.32-1.05-1.99-4.36-8.42-4.36-8.42-9.64-16.3-2.59-3.54-4.47-7.31-6.35-11.3-1.28-2.57-2.71-4.98-4.21-7.43-0.51-0.85-1.01-1.7-1.54-2.57-0.5-0.84-1-1.69-1.52-2.55-0.51-0.85-1.02-1.7-1.54-2.58-1.09-1.79-2.23-3.55-3.4-5.3v-3l-2-1c-0.99 0.33-1.98 0.66-3 1l2-6z" fill="#FBFFFF"/>
<path transform="translate(843,614)" d="m0 0c0 2.62-0.31 4.51-1 7h-2c-1.21 2.33-2.17 4.5-3 7h-2c-0.14 0.78-0.29 1.57-0.44 2.38-0.56 2.62-0.56 2.62-1.56 4.62h-2c-0.19 1.08-0.19 1.08-0.38 2.19-0.61 2.77-1.5 5.21-2.62 7.81h-2l-2 5h-2c0.08 0.72 0.16 1.44 0.25 2.19-0.33 3.73-1.84 4.94-4.25 7.81-1.34 2.34-2.61 4.71-3.85 7.11-1.15 1.89-1.15 1.89-3.15 2.89-0.71 1.99-1.37 3.99-2 6-0.64 1.35-1.29 2.69-2 4h-2l-3 9h-2v3h-2c-0.27 1.07-0.54 2.14-0.81 3.25-1.06 3.33-1.86 5.23-4.19 7.75-0.99 0.5-0.99 0.5-2 1-0.91 2.34-0.91 2.34-1.62 5.06-0.27 0.92-0.53 1.84-0.79 2.79-0.2 0.71-0.39 1.42-0.59 2.15h-2c-0.28 0.57-0.56 1.13-0.84 1.72-1.56 3.07-3.26 6.06-4.94 9.06-1.13 2.05-2.18 4.13-3.22 6.22-2.33 4.23-4.82 8.31-7.44 12.4-2.69 4.19-5.18 8.44-7.52 12.8-1.04 1.78-1.04 1.78-3.04 3.78-0.64 2.07-0.64 2.07-1 4h-2c-0.06 0.56-0.12 1.11-0.19 1.69-1.14 3.26-3.3 5-5.81 7.31l-1-3c1.38-2.63 2.79-5.07 4.38-7.56 0.84-1.36 1.68-2.71 2.52-4.07 0.69-1.11 1.39-2.22 2.1-3.37 0.5-0.99 0.5-0.99 1-2h2c0.16-0.81 0.16-0.81 0.33-1.64 2.1-7.39 6.47-14.4 10.8-20.7 1.12-1.75 1.12-1.75 0.88-4.62h3c0.28-0.74 0.55-1.47 0.84-2.23 1.07-2.55 2.26-4.74 3.72-7.08 2.72-4.44 5.28-8.95 7.82-13.5 3.43-6.16 7.04-12.2 10.8-18.2 2.31-3.8 4.44-7.68 6.53-11.6 1.37-2.53 2.83-4.98 4.32-7.44l2.67-4.44c0.5-0.83 0.99-1.65 1.51-2.5 8.9-14.8 8.9-14.8 17.4-29.8 6.73-12.2 6.73-12.2 11.4-15.3z" fill="#FCFFFF"/>
<path transform="translate(955,1012)" d="m0 0c4.25 8.5 4.25 8.5 5.55 11.1 1.03 2.04 2.08 4.07 3.15 6.08 0.83 1.6 0.83 1.6 1.68 3.23 0.78 1.48 0.78 1.48 1.58 2.99 1.04 2.57 1.04 2.57 0.04 5.57l-3-2-2 3-3-3v2c-2.33 1.16-3.85 1.2-6.44 1.25-0.78 0.03-1.56 0.05-2.37 0.08-2.67-0.4-3.51-1.28-5.19-3.33-0.99 0.33-1.98 0.66-3 1-0.59 1.95-0.59 1.95-1 4l-2 2c-0.64 2.07-0.64 2.07-1 4h-2c-0.99 2.47-0.99 2.47-2 5h-2c0.47-4.82 1.29-7.99 4-12 0.68-1.33 1.35-2.66 2-4h2c0.37-1.55 0.37-1.55 0.75-3.12 0.89-3.1 2.14-5.38 4.04-8 2.29-3.55 3.96-7.45 5.75-11.3 1.46-2.61 1.46-2.61 4.46-4.61z" fill="#FAFEFE"/>
<path transform="translate(679 1178)" d="m0 0h3.9l10.1 0.03c3.46 0.01 6.92 0.01 10.4 0.02 6.75 0.01 13.5 0.03 20.2 0.05 0.49 2.47 0.49 2.47 1 5h-73v-1c12.4-0.5 12.4-0.5 25-1h-27v-2c9.81-0.76 19.5-1.14 29.4-1.1z" fill="#FBFFFF"/>
<path transform="translate(790,704)" d="m0 0c1 2 1 2 0.44 3.95-0.29 0.71-0.58 1.43-0.88 2.17-0.43 1.09-0.43 1.09-0.87 2.2-0.23 0.55-0.45 1.11-0.69 1.68h-2c-0.28 0.57-0.56 1.13-0.84 1.72-1.56 3.07-3.26 6.06-4.94 9.06-1.13 2.05-2.18 4.13-3.22 6.22-2.33 4.23-4.82 8.31-7.44 12.4-2.69 4.19-5.18 8.44-7.52 12.8-1.04 1.78-1.04 1.78-3.04 3.78-0.64 2.07-0.64 2.07-1 4h-2c-0.06 0.56-0.12 1.11-0.19 1.69-1.14 3.26-3.3 5-5.81 7.31l-1-3c1.38-2.63 2.79-5.07 4.38-7.56 0.84-1.36 1.68-2.71 2.52-4.07 0.69-1.11 1.39-2.22 2.1-3.37l1-2h2c0.11-0.54 0.22-1.08 0.33-1.64 2.1-7.39 6.47-14.4 10.8-20.7 1.12-1.75 1.12-1.75 0.88-4.62h3c0.27-0.72 0.54-1.45 0.82-2.19 1.17-2.78 2.53-5.19 4.12-7.75 1.75-2.85 3.31-5.59 4.75-8.62 1.31-2.44 1.31-2.44 4.31-3.44z" fill="#FBFFFF"/>
<path transform="translate(571,1049)" d="m0 0 1 2c0.99-0.33 1.98-0.66 3-1 3.15 1.05 6.06 2.48 9 4-0.63 3.15-1.81 5.92-3.1 8.85-1.81 4.32-3.33 8.74-4.9 13.2-2-3.75-2-3.75-2-6-3.63-0.2-5.87 0.14-9 2 1.86-7.57 1.86-7.57 5-10l-2-2c0.47-0.45 0.95-0.91 1.44-1.38 1.65-1.55 1.65-1.55 2.56-3.62-2.49-1.25-3.41-0.78-6 0l5-6z" fill="#0190D4"/>
<path transform="translate(398,1117)" d="m0 0c3.26 2.61 3.92 5.43 5 9.38 1.2 4.35 2.54 7.83 5 11.6 0.38 0.69 0.76 1.39 1.15 2.11 7.45 12.6 23.8 22.7 37.7 26.3 2.17 0.61 2.17 0.61 5.23 2.17 3.86 1.89 7.74 2.65 11.9 3.44v3l-8 1-2-3c-1.99-0.65-1.99-0.65-4.25-0.94-4.38-0.84-7.1-2.44-10.8-5.06-3.18-1.45-6.31-2.77-9.62-3.88-3.12-1.47-5.02-3.64-7.38-6.12l-2-1v-2h-4v-3h-2c-5-5.36-5-5.36-5-9-0.99 0.33-1.98 0.66-3 1-0.67-1.77-1.34-3.54-2-5.31-0.37-0.99-0.74-1.97-1.12-2.99-0.88-2.7-0.88-2.7-0.88-5.7h-2c-0.8-3.29-1.1-4.71 0-8h-2v-4z" fill="#FBFFFF"/>
<path transform="translate(748,776)" d="m0 0c0 6.86-5.19 13.5-9 19-0.28 0.57-0.56 1.14-0.85 1.73-1.61 3.19-3.49 6.22-5.34 9.27-0.8 1.34-1.61 2.68-2.42 4.02-0.4 0.66-0.8 1.33-1.21 2.02-1.74 2.89-3.47 5.8-5.18 8.71-0.56 0.94-1.11 1.89-1.69 2.86-1.42 2.42-1.42 2.42-2.31 5.39h-2c-0.1 0.56-0.21 1.11-0.31 1.69-0.83 2.78-2.07 4.91-3.69 7.31-0.99 0.5-0.99 0.5-2 1l1-7h2c0.13-0.59 0.27-1.18 0.41-1.79 1.81-6.74 6.06-12.7 9.67-18.6 2.49-4.12 4.89-8.27 7.22-12.5 0.57-1.03 1.14-2.05 1.73-3.11 1.13-2.04 2.25-4.08 3.36-6.12 2.77-4.98 5.29-9.12 9.61-12.9l1-1z" fill="#FBFFFF"/>
<path transform="translate(500 977)" d="m0 0c0.99-0.03 1.98-0.05 3-0.08 0.84 0.11 1.69 0.22 2.56 0.33l2 3 1 1 1 2c1.9 0.47 1.9 0.47 4.06 0.63 1.3 0.12 2.6 0.24 3.94 0.37-0.99 0.5-0.99 0.5-2 1v2h-2l-1 3c-0.99 0.5-0.99 0.5-2 1v-2h-3v2h2v2h2v2c-1.96 1.71-3.96 3.38-6 5-2.98-4.1-3.29-6.98-3-12l-5-1 1-7c-0.99 0.33-1.98 0.66-3 1v-2l-2-1c1.74-1.74 4.08-1.21 6.44-1.25z" fill="#00A1D9"/>
<path transform="translate(592,1148)" d="m0 0h3c0.25 0.8 0.5 1.61 0.75 2.44 0.95 2.71 0.95 2.71 3.19 3.25 0.68 0.1 1.36 0.2 2.06 0.31l3 2v2c0.91 0.27 1.82 0.54 2.75 0.81 3.05 1.12 4.71 2.26 7.25 4.19 2.3 1.1 4.63 2.04 7 3v2c0.89 0.12 1.77 0.25 2.69 0.38 3.01 0.56 5.51 1.39 8.31 2.62v2c1.61 0.19 1.61 0.19 3.25 0.38 3.13 0.52 5.08 1.02 7.75 2.62v2h-14v-1l5-1v-2h-5c-0.5-1.48-0.5-1.48-1-3-0.83-0.12-1.65-0.25-2.5-0.38-3.9-0.69-7.67-1.63-11.5-2.62v-3c-2.02 0.1-4.04 0.2-6.05 0.29-0.65-0.09-1.29-0.19-1.95-0.29l-2-3c-1.18-0.45-2.35-0.91-3.56-1.38-1.7-0.8-1.7-0.8-3.44-1.62-0.69-2.44-0.69-2.44-1-5-1.29-1.37-2.62-2.71-4-4v-2z" fill="#048CD3"/>
<path transform="translate(517,987)" d="m0 0c6.75 1.62 6.75 1.62 9 5 1.15 0.14 2.31 0.29 3.5 0.44 1.15 0.18 2.31 0.37 3.5 0.56 1.31 2 1.31 2 2 4l2 1v3l2 1c-1.98 0.66-3.96 1.32-6 2l1 2v3c-3 0-3 0-5.06-1.88-0.64-0.7-1.28-1.4-1.94-2.12l-2-2c0.99-0.33 1.98-0.66 3-1v-2h2v-2h-2l-2-3v4 1c-1.28-0.1-2.56-0.21-3.88-0.31-1.07-0.09-1.07-0.09-2.17-0.18-1.95-0.51-1.95-0.51-3.95-3.51l5-5c-2.97-0.5-2.97-0.5-6-1l2-3z" fill="#0090D4"/>
<path transform="translate(1595,1540)" d="m0 0h1l1 35h1c0.28 2.75 0.52 5.5 0.75 8.25 0.08 0.78 0.16 1.55 0.25 2.36 0.44 5.78 0.44 5.78-1.84 8.95-2.16 1.44-2.16 1.44-4.41 1.19-0.58-0.25-1.15-0.49-1.75-0.75 0-4 0-4 1-6h-2v-5h1l1-14h1l1 7c-0.01-0.94-0.01-1.89-0.02-2.86-0.01-3.51-0.03-7.02-0.03-10.5-0.01-1.52-0.02-3.03-0.03-4.55-0.01-2.19-0.01-4.37-0.02-6.56 0-1.32-0.01-2.63-0.01-3.98 0.09-2.99 0.41-5.62 1.11-8.51z" fill="#FBFFFF"/>
<path transform="translate(709,843)" d="m0 0v5h-2c-0.25 0.85-0.5 1.69-0.75 2.56-1.38 3.79-3.17 7-5.25 10.4-0.54 0.95-1.07 1.9-1.62 2.88-1.38 2.12-1.38 2.12-3.38 3.12-0.73 1.64-1.39 3.31-2 5-0.67 1.67-1.33 3.33-2 5h-2v3h-2v4h-2v2h-2l1-7c1.49-0.5 1.49-0.5 3-1 0.11-0.74 0.23-1.47 0.35-2.23 0.66-2.83 1.54-4.58 3.09-7.02 2.08-3.33 4.1-6.67 6.04-10.1 0.44-0.76 0.87-1.52 1.32-2.31 0.87-1.52 1.74-3.04 2.6-4.57 2.12-3.68 3.83-6.58 7.6-8.8z" fill="#FBFFFF"/>
<path transform="translate(490,915)" d="m0 0h2c-0.98 5.91-2.2 9.29-6 14 0.13 2.75 0.13 2.75 1 5h-2v3l2 1h-3l-1-3v4h2c1.26 3.77 0.37 5.37-1 9-0.5-1.49-0.5-1.49-1-3-0.65-1.34-1.32-2.68-2-4l-4 2 1 7c-2.4-2.4-2.88-4.33-3.22-7.67 0.45-4.78 3.62-8.44 6.22-12.3 1.26-2.14 2.51-4.28 3.75-6.44 1.69-2.91 3.38-5.76 5.25-8.56z" fill="#00A2D9"/>
<path transform="translate(790,704)" d="m0 0c1 2 1 2 0.44 3.95-0.29 0.71-0.58 1.43-0.88 2.17-0.43 1.09-0.43 1.09-0.87 2.2-0.23 0.55-0.45 1.11-0.69 1.68h-2c-0.28 0.57-0.56 1.13-0.84 1.72-1.56 3.07-3.26 6.06-4.94 9.06-0.78 1.42-1.52 2.86-2.21 4.33-1.5 2.8-3.72 4.72-6.01 6.89l-2-1c0.5-1.11 0.99-2.23 1.5-3.38 1.63-3.27 1.63-3.27 1.5-5.62h3c0.27-0.72 0.54-1.45 0.82-2.19 1.17-2.78 2.53-5.19 4.12-7.75 1.75-2.85 3.31-5.59 4.75-8.62 1.31-2.44 1.31-2.44 4.31-3.44z" fill="#FBFFFF"/>
<path transform="translate(585,874)" d="m0 0c0.99 0.33 1.98 0.66 3 1h2.56c2.44 0 2.44 0 4.44 1 0.66 0.31 1.32 0.62 2 0.94 2 1.06 2 1.06 4 3.06l-5 1v2c-2.31 2.62-2.31 2.62-5 5h-3l2-1c-0.6-0.54-1.2-1.07-1.81-1.62-2.71-2.94-5.19-6.25-5.19-10.4l2-1z" fill="#048CD3"/>
<path transform="translate(583 1178)" d="m0 0c0.97 0 1.94 0.01 2.94 0.01 2.37 0.02 4.75 0.03 7.12 0.05l2 5h-12c-1.14 0.05-2.29 0.1-3.47 0.14-1.34 0.04-2.68 0.08-4.03 0.11-1.01 0.05-1.01 0.05-2.05 0.1-1.98 0.04-1.98 0.04-5.45-0.35-1.97-2.01-1.97-2.01-3-4 6.01-1.06 11.8-1.11 17.9-1.06z" fill="#FBFFFF"/>
<path transform="translate(622,1178)" d="m0 0h25v3h-5l-1 2h-17v-2l-2-1v-2z" fill="#FBFFFF"/>
<path transform="translate(1038 1013)" d="m0 0c1.23 0.01 1.23 0.01 2.48 0.03 0.94 0.01 0.94 0.01 1.9 0.03v2c1.31 0.33 2.64 0.66 4 1-0.33 0.66-0.67 1.32-1 2-1.83 0.38-1.83 0.38-4.13 0.56-3.99 0.36-7.92 0.85-11.9 1.44-0.67-0.99-1.32-1.98-2-3-1.99 0.66-3.97 1.32-6 2 0.65-1.32 1.32-2.64 2-4 5.74-0.12 5.74-0.12 8 1v-2c2.4-1.2 3.94-1.1 6.62-1.06z" fill="#058CD3"/>
<path transform="translate(631,681)" d="m0 0v4l-5-1v3h2l-1 5-2-1-1 5c-0.99 0.33-1.98 0.66-3 1l2 1c-5.75 3-5.75 3-8 3 1.4-3.67 3.02-7.11 4.88-10.6 0.73-1.4 0.73-1.4 1.49-2.82 4.12-6.62 4.12-6.62 9.63-6.62z" fill="#0D88D1"/>
<path transform="translate(739,1050)" d="m0 0c1.12 3.75 1.12 3.75 0 6-0.99-0.33-1.98-0.66-3-1-1.81-0.02-3.63 0.01-5.44 0.06-6.36 0.07-12.3-0.82-18.6-2.06v-1c9.09-1.39 17.8-2.31 27-2z" fill="#0090D4"/>
<path transform="translate(559,799)" d="m0 0 1 3h-2l1 7-4 2 1 6c-2.31-0.33-4.62-0.66-7-1 1.55-6.76 4.07-13 10-17z" fill="#0291D4"/>
<path transform="translate(469,1174)" d="m0 0c6.65-0.21 12.5 0.47 19 2 0.74 0.13 1.47 0.25 2.23 0.38 0.88 0.31 0.88 0.31 1.77 0.62l1 3c-4.54 0.13-4.54 0.13-6.86-0.5-2.47-0.58-4.66-0.56-7.2-0.5-3.1 0.07-4.96-0.01-7.94-1v-3l-2-1z" fill="#FBFFFF"/>
<path transform="translate(500 977)" d="m0 0c0.99-0.03 1.98-0.05 3-0.08 0.84 0.11 1.69 0.22 2.56 0.33l2 3 1 1c-2.05 2.25-3 3-6 4l2 1c-1 1-1 1-4.06 1.06-0.97-0.02-1.94-0.04-2.94-0.06l1-7c-0.99 0.33-1.98 0.66-3 1v-2l-2-1c1.74-1.74 4.08-1.21 6.44-1.25z" fill="#0090D4"/>
<path transform="translate(570,776)" d="m0 0 4 1c-1 3-1 3-3 4v6l-4 2v3c-0.99 0.33-1.98 0.66-3 1-1.23 3.51-1.23 3.51-2 7l-2-2c0.35-3.59 1.49-6.23 3.31-9.31 2.4-4.16 4.57-8.38 6.69-12.7z" fill="#068FD3"/>
<path transform="translate(530,994)" d="m0 0 2 1v4h2v2l2 1h-2l-1 4h2l-1 3c-3 0-3 0-5.06-1.88-0.64-0.7-1.28-1.4-1.94-2.12l-2-2c0.99-0.33 1.98-0.66 3-1v-2h2v-2h-2v-3l2-1z" fill="#0090D4"/>
<path transform="translate(518,972)" d="m0 0 1 2 5-2v2h2l1-2 4 6c-12.1 0-12.1 0-18-1 1.38-1.5 1.38-1.5 3-3h2v-2z" fill="#00A2D9"/>
<path transform="translate(934,788)" d="m0 0v2c-0.52 0.21-1.04 0.42-1.58 0.63-8.27 3.46-16.2 7.8-22.4 14.4l-2-1 7-7h3l-1-3c0.99-0.25 1.98-0.5 3-0.75 3.7-1.04 6.93-2.63 10.3-4.45 1.7-0.8 1.7-0.8 3.7-0.8z" fill="#FBFFFF"/>
<path transform="translate(685,872)" d="m0 0h5c-1.14 3.95-2.14 6.14-5 9-1.2 3.1-1.2 3.1-2 6-0.99-0.33-1.98-0.66-3-1l2-3-2-1 4-4-5 1 2-5 4 1v-3z" fill="#0495D6"/>
<path transform="translate(556,1031)" d="m0 0h2v3l4 2-4 2c0.99 0.33 1.98 0.66 3 1h-3v3l4 1v2c-3.24-0.56-4.93-1.41-7-4v-2l-2-1v-3l2-1v2h2l-1-5z" fill="#008FD4"/>
<path transform="translate(978,1064)" d="m0 0c3.35 2.24 3.67 3.1 5 6.75 1.13 3.03 2.25 5.71 3.81 8.56 1.37 3.1 1.22 4.52 0.19 7.69h-1v-5h-2c-0.12-0.7-0.25-1.4-0.38-2.12-0.66-3.06-1.59-5.93-2.62-8.88h-2l-1 2v-9z" fill="#FBFFFF"/>
<path transform="translate(588 875)" d="m0 0c0.95 0.35 1.9 0.7 2.88 1.06-0.58 2.39-1.23 4.67-2 7 0.65 0.33 1.32 0.66 2 1-1 0.66-1.99 1.32-3 2-0.84-1.45-1.68-2.91-2.5-4.37-0.7-1.22-0.7-1.22-1.41-2.46-1.09-2.17-1.09-2.17-1.09-4.17 2-1 2-1 5.12-0.06z" fill="#0E87D1"/>
<path transform="translate(651,727)" d="m0 0h2c0.43 0.47 0.87 0.95 1.31 1.44 2.14 1.97 3.85 2.18 6.69 2.56l-2 2h-3v3h-6l-1-2 2-2-2-2 2-2v-1z" fill="#0D7BC9"/>
<path transform="translate(562,1051)" d="m0 0c1.03 3.75 1.26 6.23 0 10l-5-1-1-5h2v-2l-2-1c3-1 3-1 6-1z" fill="#0091D4"/>
<path transform="translate(703,845)" d="m0 0c0.99 0.33 1.98 0.66 3 1-1.62 2.82-3.24 5.63-4.88 8.44-0.46 0.8-0.92 1.6-1.39 2.43-0.44 0.76-0.89 1.53-1.35 2.31-0.41 0.71-0.81 1.42-1.23 2.15-1.15 1.67-1.15 1.67-3.15 2.67-0.37-5.53-0.37-5.53 1.31-7.69 0.56-0.43 1.12-0.86 1.69-1.31 1.69-1.44 1.69-1.44 3-3v-3l2-2 1-2z" fill="#0094D5"/>
<path transform="translate(507,989)" d="m0 0 1 2h2v2h2v2c-1.96 1.71-3.96 3.38-6 5-1.56-2.31-1.56-2.31-3-5l1-3h2l1-3z" fill="#0094D5"/>
<path transform="translate(699,765)" d="m0 0c0.99 0.33 1.98 0.66 3 1 1 3 1 3 1 6-2.64 1.41-5.07 2.37-8 3l-2-4c1.98-0.66 3.96-1.32 6-2v-4z" fill="#0E7ECB"/>
<path transform="translate(527,1178)" d="m0 0h13l1 3h-8l-1 2c-1.98-0.66-3.96-1.32-6-2l1-3z" fill="#FBFFFF"/>
<path transform="translate(516,965)" d="m0 0 1 7h-6c-0.12-0.8-0.25-1.61-0.38-2.44-0.3-1.27-0.3-1.27-0.62-2.56l-2-1c3.07-1.86 4.6-2.22 8-1z" fill="#00A3D9"/>
<path transform="translate(704,782)" d="m0 0 2 1v2l4 1-4 1v2c-4.62 2.12-4.62 2.12-8 1 1.44-3.37 3.33-5.51 6-8z" fill="#0E7FCC"/>
<path transform="translate(906,805)" d="m0 0h2c-1.35 2.94-2.9 5.29-5 7.75-0.52 0.61-1.03 1.23-1.56 1.86-1.44 1.39-1.44 1.39-3.44 1.39-0.27 0.97-0.54 1.94-0.81 2.94-0.39 1.01-0.79 2.02-1.19 3.06-0.99 0.33-1.98 0.66-3 1 1.29-5.03 3.17-7.54 7-11 2.07-1.99 3.37-3.56 5-6l1-1z" fill="#FBFFFF"/>
<path transform="translate(778,725)" d="m0 0 1 2c-1.33 3.86-4.09 6.24-7 9l-2-1c0.5-1.11 0.99-2.23 1.5-3.38 1.63-3.27 1.63-3.27 1.5-5.62l5-1z" fill="#EFFAFD"/>
<path transform="translate(833,1035)" d="m0 0c1.88 0.62 1.88 0.62 4 2 1.31 3 1.31 3 2 6l-1 2c-2.06 0.62-2.06 0.62-4 1-1.71-3.43-1-7.2-1-11z" fill="#0095D5"/>
<path transform="translate(529,992)" d="m0 0c1.88 0.25 1.88 0.25 4 1 1.12 2 1.12 2 2 4l2 1v3l2 1-5 2v-5h-2v-2l-2-1v-1l-2-1 1-2z" fill="#00A3D9"/>
<path transform="translate(971,1045)" d="m0 0 6 3v5l1-1 1 3-4 1c-0.67-1.46-1.34-2.92-2-4.38-0.37-0.81-0.74-1.62-1.12-2.46-0.88-2.16-0.88-2.16-0.88-4.16z" fill="#00A3D9"/>
<path transform="translate(508,957)" d="m0 0c3 1 3 1 5 3-4.31 3.08-4.31 3.08-7.81 2.69-0.72-0.23-1.45-0.46-2.19-0.69l-1-3h6v-2z" fill="#00A3D9"/>
<path transform="translate(1079,942)" d="m0 0c2.02 1.93 3.42 3.63 5 6l-1 3c-2.44-0.38-2.44-0.38-5-1-1.23-2.46-1.07-4.28-1-7l2-1z" fill="#0D8AD1"/>
<path transform="translate(575,1123)" d="m0 0 1 2h2c0.27 0.6 0.53 1.21 0.8 1.83 0.36 0.8 0.71 1.6 1.08 2.42 0.34 0.79 0.69 1.58 1.05 2.39 0.97 2.15 2 4.26 3.07 6.36h-2v-2h-3v-4h-2v-5h-2v-4z" fill="#0989D1"/>
<path transform="translate(571,1063)" d="m0 0 1 2 2 1-8 6-1-2c1.25-3.06 1.25-3.06 3-6 0.99-0.33 1.98-0.66 3-1z" fill="#0098D6"/>
<path transform="translate(511,983)" d="m0 0c2.31 0.33 4.62 0.66 7 1-0.99 0.5-0.99 0.5-2 1v2h-2l-1 3c-0.99 0.5-0.99 0.5-2 1v-2c-0.99-0.33-1.98-0.66-3-1 0.99-1.65 1.98-3.3 3-5z" fill="#008FD4"/>
<path transform="translate(1098,976)" d="m0 0h2c0.7 1.29 1.38 2.58 2.06 3.88 0.58 1.07 0.58 1.07 1.16 2.17 0.26 0.65 0.52 1.29 0.78 1.95l-1 2-5-1v-9z" fill="#0092D5"/>
<path transform="translate(812,962)" d="m0 0c2.97 0.5 2.97 0.5 6 1-0.6 2.02-1.27 4.02-2 6-0.99 0.5-0.99 0.5-2 1l-3-2 1-6z" fill="#009AD7"/>
<path transform="translate(629,881)" d="m0 0h1v6l4-2 1 5c-4 0-4 0-7-2 0-2.62 0.31-4.51 1-7z" fill="#078BD2"/>
<path transform="translate(967,1041)" d="m0 0c3 1 3 1 4.75 4.31 1.58 4.67 1.58 4.67 0.25 7.69h-2c-0.12-0.63-0.24-1.25-0.37-1.9-0.16-0.82-0.33-1.63-0.51-2.48-0.16-0.81-0.32-1.62-0.49-2.46-0.5-2.35-0.5-2.35-2.63-4.16l1-1z" fill="#FBFFFF"/>
<path transform="translate(634,671)" d="m0 0-1 9h-4c0.31-3.38 0.31-3.38 1-7 3-2 3-2 4-2z" fill="#0C87D0"/>
<path transform="translate(490,915)" d="m0 0h2c-0.23 1.46-0.48 2.92-0.75 4.38-0.21 1.21-0.21 1.21-0.42 2.46-0.83 2.16-0.83 2.16-2.78 3.39-0.68 0.25-1.35 0.51-2.05 0.77-0.99 0.5-0.99 0.5-2 1 1.57-4.31 3.68-8.06 6-12z" fill="#009CD7"/>
<path transform="translate(570,776)" d="m0 0 4 1c-1 3-1 3-3 4v6l-4-4c0.99-2.31 1.98-4.62 3-7z" fill="#0490D4"/>
<path transform="translate(836,1100)" d="m0 0c0.69 2.49 1 4.38 1 7-2-1-2-1-2.75-2.94-0.08-0.68-0.16-1.36-0.25-2.06l2-2zm2 1c1.94 0.31 1.94 0.31 4 1l1 3-1 2h-2v-4h-2v-2z" fill="#009AD7"/>
<path transform="translate(571,1089)" d="m0 0h1v19l-2-1c-1.4-6.43-0.57-11.7 1-18z" fill="#078BD2"/>
<path transform="translate(566,1050)" d="m0 0h2c-0.58 2.39-1.22 4.67-2 7-1.98 0.33-3.96 0.66-6 1l2-1c0.68-1.66 1.35-3.33 2-5l2-2z" fill="#009AD7"/>
<path transform="translate(571,853)" d="m0 0 1 2c2.32 0.41 4.66 0.74 7 1l-1 3h-7c-0.38-1.66-0.71-3.32-1-5l1-1z" fill="#088BD2"/>
<path transform="translate(746,1048)" d="m0 0v3h2v-2c0.99 0.33 1.98 0.66 3 1h-2v2h-6v2h-2v-5c2-1 2-1 5-1z" fill="#0190D4"/>
<path transform="translate(466,954)" d="m0 0 1 2c-1.86 4.31-4.21 8.22-7 12h-2c1.54-3.2 3.29-6.22 5.12-9.25 0.54-0.89 1.08-1.78 1.64-2.7 0.61-1.02 0.61-1.02 1.24-2.05z" fill="#FBFFFF"/>
<path transform="translate(994,1098)" d="M0 0 C2.91 1.46 3.32 3.5 4.62 6.44 C5.07 7.43 5.52 8.41 5.98 9.43 C7 12 7 12 7 14 C4 13 4 13 2.83 10.82 C2.5 9.93 2.16 9.04 1.81 8.12 C1.3 6.8 1.3 6.8 0.77 5.45 C0 3 0 3 0 0 Z " fill="#FBFFFF"/>
<path transform="translate(573,1034)" d="m0 0 2 1v1h3c0.99 1.48 0.99 1.48 2 3h-10c0.99-1.65 1.98-3.3 3-5z" fill="#008FD4"/>
</svg>